<svg width="695" height="350" viewBox="0 0 695 350" fill="none" xmlns="http://www.w3.org/2000/svg">
<g clip-path="url(#clip0)">
<path d="M0 86.7093H695" stroke="black" stroke-width="0.3"/>
<path d="M0 263.818H695" stroke="black" stroke-width="0.3"/>
<path d="M0 175.264H695" stroke="black" stroke-width="0.3"/>
<path d="M16.0228 213.4H21.3328C22.6648 213.4 23.8468 213.664 24.8788 214.192C25.9108 214.72 26.7088 215.464 27.2728 216.424C27.8488 217.372 28.1368 218.464 28.1368 219.7C28.1368 220.936 27.8488 222.034 27.2728 222.994C26.7088 223.942 25.9108 224.68 24.8788 225.208C23.8468 225.736 22.6648 226 21.3328 226H16.0228V213.4ZM21.2248 224.434C22.2448 224.434 23.1388 224.236 23.9068 223.84C24.6868 223.444 25.2868 222.892 25.7068 222.184C26.1268 221.464 26.3368 220.636 26.3368 219.7C26.3368 218.764 26.1268 217.942 25.7068 217.234C25.2868 216.514 24.6868 215.956 23.9068 215.56C23.1388 215.164 22.2448 214.966 21.2248 214.966H17.8228V224.434H21.2248ZM30.8939 213.4H32.6939V226H30.8939V213.4ZM44.4942 222.85H37.7982L36.4122 226H34.5582L40.2642 213.4H42.0462L47.7702 226H45.8802L44.4942 222.85ZM43.8642 221.41L41.1462 215.236L38.4282 221.41H43.8642ZM49.6498 213.4H51.4498V224.434H58.2718V226H49.6498V213.4ZM70.8593 226.144C69.5873 226.144 68.4413 225.868 67.4213 225.316C66.4013 224.752 65.5973 223.978 65.0093 222.994C64.4333 222.01 64.1453 220.912 64.1453 219.7C64.1453 218.488 64.4333 217.39 65.0093 216.406C65.5973 215.422 66.4013 214.654 67.4213 214.102C68.4413 213.538 69.5873 213.256 70.8593 213.256C72.1193 213.256 73.2593 213.538 74.2793 214.102C75.2993 214.654 76.0973 215.422 76.6733 216.406C77.2493 217.378 77.5373 218.476 77.5373 219.7C77.5373 220.924 77.2493 222.028 76.6733 223.012C76.0973 223.984 75.2993 224.752 74.2793 225.316C73.2593 225.868 72.1193 226.144 70.8593 226.144ZM70.8593 224.542C71.7833 224.542 72.6113 224.332 73.3433 223.912C74.0873 223.492 74.6693 222.916 75.0893 222.184C75.5213 221.44 75.7373 220.612 75.7373 219.7C75.7373 218.788 75.5213 217.966 75.0893 217.234C74.6693 216.49 74.0873 215.908 73.3433 215.488C72.6113 215.068 71.7833 214.858 70.8593 214.858C69.9353 214.858 69.0953 215.068 68.3393 215.488C67.5953 215.908 67.0073 216.49 66.5753 217.234C66.1553 217.966 65.9453 218.788 65.9453 219.7C65.9453 220.612 66.1553 221.44 66.5753 222.184C67.0073 222.916 67.5953 223.492 68.3393 223.912C69.0953 224.332 69.9353 224.542 70.8593 224.542ZM85.2024 213.4C86.8344 213.4 88.1184 213.79 89.0544 214.57C89.9904 215.35 90.4584 216.424 90.4584 217.792C90.4584 219.16 89.9904 220.234 89.0544 221.014C88.1184 221.794 86.8344 222.184 85.2024 222.184H82.0884V226H80.2884V213.4H85.2024ZM85.1484 220.618C86.2884 220.618 87.1584 220.378 87.7584 219.898C88.3584 219.406 88.6584 218.704 88.6584 217.792C88.6584 216.88 88.3584 216.184 87.7584 215.704C87.1584 215.212 86.2884 214.966 85.1484 214.966H82.0884V220.618H85.1484ZM95.2006 214.966H90.8806V213.4H101.303V214.966H96.9826V226H95.2006V214.966ZM103.263 213.4H105.063V226H103.263V213.4ZM114.523 226.144C113.251 226.144 112.105 225.868 111.085 225.316C110.065 224.752 109.261 223.978 108.673 222.994C108.097 222.01 107.809 220.912 107.809 219.7C107.809 218.488 108.097 217.39 108.673 216.406C109.261 215.422 110.065 214.654 111.085 214.102C112.105 213.538 113.251 213.256 114.523 213.256C115.783 213.256 116.923 213.538 117.943 214.102C118.963 214.654 119.761 215.422 120.337 216.406C120.913 217.378 121.201 218.476 121.201 219.7C121.201 220.924 120.913 222.028 120.337 223.012C119.761 223.984 118.963 224.752 117.943 225.316C116.923 225.868 115.783 226.144 114.523 226.144ZM114.523 224.542C115.447 224.542 116.275 224.332 117.007 223.912C117.751 223.492 118.333 222.916 118.753 222.184C119.185 221.44 119.401 220.612 119.401 219.7C119.401 218.788 119.185 217.966 118.753 217.234C118.333 216.49 117.751 215.908 117.007 215.488C116.275 215.068 115.447 214.858 114.523 214.858C113.599 214.858 112.759 215.068 112.003 215.488C111.259 215.908 110.671 216.49 110.239 217.234C109.819 217.966 109.609 218.788 109.609 219.7C109.609 220.612 109.819 221.44 110.239 222.184C110.671 222.916 111.259 223.492 112.003 223.912C112.759 224.332 113.599 224.542 114.523 224.542ZM134.789 213.4V226H133.312L125.753 216.604V226H123.953V213.4H125.429L132.989 222.796V213.4H134.789ZM142.232 226.144C141.284 226.144 140.366 226 139.478 225.712C138.602 225.412 137.912 225.028 137.408 224.56L138.074 223.156C138.554 223.588 139.166 223.942 139.91 224.218C140.666 224.482 141.44 224.614 142.232 224.614C143.276 224.614 144.056 224.44 144.572 224.092C145.088 223.732 145.346 223.258 145.346 222.67C145.346 222.238 145.202 221.89 144.914 221.626C144.638 221.35 144.29 221.14 143.87 220.996C143.462 220.852 142.88 220.69 142.124 220.51C141.176 220.282 140.408 220.054 139.82 219.826C139.244 219.598 138.746 219.25 138.326 218.782C137.918 218.302 137.714 217.66 137.714 216.856C137.714 216.184 137.888 215.578 138.236 215.038C138.596 214.498 139.136 214.066 139.856 213.742C140.576 213.418 141.47 213.256 142.538 213.256C143.282 213.256 144.014 213.352 144.734 213.544C145.454 213.736 146.072 214.012 146.588 214.372L145.994 215.812C145.466 215.476 144.902 215.224 144.302 215.056C143.702 214.876 143.114 214.786 142.538 214.786C141.518 214.786 140.75 214.972 140.234 215.344C139.73 215.716 139.478 216.196 139.478 216.784C139.478 217.216 139.622 217.57 139.91 217.846C140.198 218.11 140.552 218.32 140.972 218.476C141.404 218.62 141.986 218.776 142.718 218.944C143.666 219.172 144.428 219.4 145.004 219.628C145.58 219.856 146.072 220.204 146.48 220.672C146.9 221.14 147.11 221.77 147.11 222.562C147.11 223.222 146.93 223.828 146.57 224.38C146.21 224.92 145.664 225.352 144.932 225.676C144.2 225.988 143.3 226.144 142.232 226.144Z" fill="black"/>
<path d="M19.6948 137.698C18.7468 137.698 17.8288 137.554 16.9408 137.266C16.0648 136.966 15.3748 136.582 14.8708 136.114L15.5368 134.71C16.0168 135.142 16.6288 135.496 17.3728 135.772C18.1288 136.036 18.9028 136.168 19.6948 136.168C20.7388 136.168 21.5188 135.994 22.0348 135.646C22.5508 135.286 22.8088 134.812 22.8088 134.224C22.8088 133.792 22.6648 133.444 22.3768 133.18C22.1008 132.904 21.7528 132.694 21.3328 132.55C20.9248 132.406 20.3428 132.244 19.5868 132.064C18.6388 131.836 17.8708 131.608 17.2828 131.38C16.7068 131.152 16.2088 130.804 15.7888 130.336C15.3808 129.856 15.1768 129.214 15.1768 128.41C15.1768 127.738 15.3508 127.132 15.6988 126.592C16.0588 126.052 16.5988 125.62 17.3188 125.296C18.0388 124.972 18.9328 124.81 20.0008 124.81C20.7448 124.81 21.4768 124.906 22.1968 125.098C22.9168 125.29 23.5348 125.566 24.0508 125.926L23.4568 127.366C22.9288 127.03 22.3648 126.778 21.7648 126.61C21.1648 126.43 20.5768 126.34 20.0008 126.34C18.9808 126.34 18.2128 126.526 17.6968 126.898C17.1928 127.27 16.9408 127.75 16.9408 128.338C16.9408 128.77 17.0848 129.124 17.3728 129.4C17.6608 129.664 18.0148 129.874 18.4348 130.03C18.8668 130.174 19.4488 130.33 20.1808 130.498C21.1288 130.726 21.8908 130.954 22.4668 131.182C23.0428 131.41 23.5348 131.758 23.9428 132.226C24.3628 132.694 24.5728 133.324 24.5728 134.116C24.5728 134.776 24.3928 135.382 24.0328 135.934C23.6728 136.474 23.1268 136.906 22.3948 137.23C21.6628 137.542 20.7628 137.698 19.6948 137.698ZM29.5287 126.52H25.2087V124.954H35.6307V126.52H31.3107V137.554H29.5287V126.52ZM46.0152 137.554L43.2972 133.684C42.9612 133.708 42.6972 133.72 42.5052 133.72H39.3912V137.554H37.5912V124.954H42.5052C44.1372 124.954 45.4212 125.344 46.3572 126.124C47.2932 126.904 47.7612 127.978 47.7612 129.346C47.7612 130.318 47.5212 131.146 47.0412 131.83C46.5612 132.514 45.8772 133.012 44.9892 133.324L47.9772 137.554H46.0152ZM42.4512 132.19C43.5912 132.19 44.4612 131.944 45.0612 131.452C45.6612 130.96 45.9612 130.258 45.9612 129.346C45.9612 128.434 45.6612 127.738 45.0612 127.258C44.4612 126.766 43.5912 126.52 42.4512 126.52H39.3912V132.19H42.4512ZM58.6973 134.404H52.0013L50.6153 137.554H48.7613L54.4673 124.954H56.2493L61.9733 137.554H60.0833L58.6973 134.404ZM58.0673 132.964L55.3493 126.79L52.6313 132.964H58.0673ZM68.7669 124.954C70.3989 124.954 71.6829 125.344 72.6189 126.124C73.5549 126.904 74.0229 127.978 74.0229 129.346C74.0229 130.714 73.5549 131.788 72.6189 132.568C71.6829 133.348 70.3989 133.738 68.7669 133.738H65.6529V137.554H63.8529V124.954H68.7669ZM68.7129 132.172C69.8529 132.172 70.7229 131.932 71.3229 131.452C71.9229 130.96 72.2229 130.258 72.2229 129.346C72.2229 128.434 71.9229 127.738 71.3229 127.258C70.7229 126.766 69.8529 126.52 68.7129 126.52H65.6529V132.172H68.7129ZM87.3651 137.698C86.0931 137.698 84.9471 137.422 83.9271 136.87C82.9071 136.306 82.1031 135.532 81.5151 134.548C80.9391 133.564 80.6511 132.466 80.6511 131.254C80.6511 130.042 80.9391 128.944 81.5151 127.96C82.1031 126.976 82.9071 126.208 83.9271 125.656C84.9471 125.092 86.0931 124.81 87.3651 124.81C88.6251 124.81 89.7651 125.092 90.7851 125.656C91.8051 126.208 92.6031 126.976 93.1791 127.96C93.7551 128.932 94.0431 130.03 94.0431 131.254C94.0431 132.478 93.7551 133.582 93.1791 134.566C92.6031 135.538 91.8051 136.306 90.7851 136.87C89.7651 137.422 88.6251 137.698 87.3651 137.698ZM87.3651 136.096C88.2891 136.096 89.1171 135.886 89.8491 135.466C90.5931 135.046 91.1751 134.47 91.5951 133.738C92.0271 132.994 92.2431 132.166 92.2431 131.254C92.2431 130.342 92.0271 129.52 91.5951 128.788C91.1751 128.044 90.5931 127.462 89.8491 127.042C89.1171 126.622 88.2891 126.412 87.3651 126.412C86.4411 126.412 85.6011 126.622 84.8451 127.042C84.1011 127.462 83.5131 128.044 83.0811 128.788C82.6611 129.52 82.4511 130.342 82.4511 131.254C82.4511 132.166 82.6611 132.994 83.0811 133.738C83.5131 134.47 84.1011 135.046 84.8451 135.466C85.6011 135.886 86.4411 136.096 87.3651 136.096ZM101.708 124.954C103.34 124.954 104.624 125.344 105.56 126.124C106.496 126.904 106.964 127.978 106.964 129.346C106.964 130.714 106.496 131.788 105.56 132.568C104.624 133.348 103.34 133.738 101.708 133.738H98.5943V137.554H96.7943V124.954H101.708ZM101.654 132.172C102.794 132.172 103.664 131.932 104.264 131.452C104.864 130.96 105.164 130.258 105.164 129.346C105.164 128.434 104.864 127.738 104.264 127.258C103.664 126.766 102.794 126.52 101.654 126.52H98.5943V132.172H101.654ZM111.706 126.52H107.386V124.954H117.808V126.52H113.488V137.554H111.706V126.52ZM119.769 124.954H121.569V137.554H119.769V124.954ZM131.029 137.698C129.757 137.698 128.611 137.422 127.591 136.87C126.571 136.306 125.767 135.532 125.179 134.548C124.603 133.564 124.315 132.466 124.315 131.254C124.315 130.042 124.603 128.944 125.179 127.96C125.767 126.976 126.571 126.208 127.591 125.656C128.611 125.092 129.757 124.81 131.029 124.81C132.289 124.81 133.429 125.092 134.449 125.656C135.469 126.208 136.267 126.976 136.843 127.96C137.419 128.932 137.707 130.03 137.707 131.254C137.707 132.478 137.419 133.582 136.843 134.566C136.267 135.538 135.469 136.306 134.449 136.87C133.429 137.422 132.289 137.698 131.029 137.698ZM131.029 136.096C131.953 136.096 132.781 135.886 133.513 135.466C134.257 135.046 134.839 134.47 135.259 133.738C135.691 132.994 135.907 132.166 135.907 131.254C135.907 130.342 135.691 129.52 135.259 128.788C134.839 128.044 134.257 127.462 133.513 127.042C132.781 126.622 131.953 126.412 131.029 126.412C130.105 126.412 129.265 126.622 128.509 127.042C127.765 127.462 127.177 128.044 126.745 128.788C126.325 129.52 126.115 130.342 126.115 131.254C126.115 132.166 126.325 132.994 126.745 133.738C127.177 134.47 127.765 135.046 128.509 135.466C129.265 135.886 130.105 136.096 131.029 136.096ZM151.294 124.954V137.554H149.818L142.258 128.158V137.554H140.458V124.954H141.934L149.494 134.35V124.954H151.294ZM158.738 137.698C157.79 137.698 156.872 137.554 155.984 137.266C155.108 136.966 154.418 136.582 153.914 136.114L154.58 134.71C155.06 135.142 155.672 135.496 156.416 135.772C157.172 136.036 157.946 136.168 158.738 136.168C159.782 136.168 160.562 135.994 161.078 135.646C161.594 135.286 161.852 134.812 161.852 134.224C161.852 133.792 161.708 133.444 161.42 133.18C161.144 132.904 160.796 132.694 160.376 132.55C159.968 132.406 159.386 132.244 158.63 132.064C157.682 131.836 156.914 131.608 156.326 131.38C155.75 131.152 155.252 130.804 154.832 130.336C154.424 129.856 154.22 129.214 154.22 128.41C154.22 127.738 154.394 127.132 154.742 126.592C155.102 126.052 155.642 125.62 156.362 125.296C157.082 124.972 157.976 124.81 159.044 124.81C159.788 124.81 160.52 124.906 161.24 125.098C161.96 125.29 162.578 125.566 163.094 125.926L162.5 127.366C161.972 127.03 161.408 126.778 160.808 126.61C160.208 126.43 159.62 126.34 159.044 126.34C158.024 126.34 157.256 126.526 156.74 126.898C156.236 127.27 155.984 127.75 155.984 128.338C155.984 128.77 156.128 129.124 156.416 129.4C156.704 129.664 157.058 129.874 157.478 130.03C157.91 130.174 158.492 130.33 159.224 130.498C160.172 130.726 160.934 130.954 161.51 131.182C162.086 131.41 162.578 131.758 162.986 132.226C163.406 132.694 163.616 133.324 163.616 134.116C163.616 134.776 163.436 135.382 163.076 135.934C162.716 136.474 162.17 136.906 161.438 137.23C160.706 137.542 159.806 137.698 158.738 137.698Z" fill="black"/>
<path d="M349.319 213.259H352.844C354.432 213.259 355.598 213.528 356.342 214.067C357.086 214.606 357.458 215.421 357.458 216.511C357.458 217.255 357.229 217.876 356.772 218.374C356.321 218.866 355.659 219.183 354.786 219.323V219.376C355.812 219.528 356.564 219.854 357.045 220.352C357.531 220.844 357.774 221.532 357.774 222.417C357.774 223.601 357.382 224.512 356.597 225.15C355.812 225.789 354.698 226.108 353.257 226.108H349.319V213.259ZM350.216 218.981H353.046C354.253 218.981 355.129 218.781 355.674 218.383C356.225 217.979 356.5 217.349 356.5 216.493C356.5 215.638 356.189 215.017 355.568 214.63C354.953 214.243 354.033 214.05 352.809 214.05H350.216V218.981ZM350.216 219.772V225.317H353.239C355.618 225.317 356.808 224.351 356.808 222.417C356.808 220.653 355.554 219.772 353.046 219.772H350.216ZM361.255 226.108H360.385V212.433H361.255V226.108ZM370.264 226.108L370.044 224.597H369.974C369.493 225.212 368.998 225.648 368.488 225.906C367.984 226.158 367.387 226.284 366.695 226.284C365.758 226.284 365.028 226.044 364.507 225.564C363.985 225.083 363.725 224.418 363.725 223.568C363.725 222.637 364.111 221.913 364.885 221.398C365.664 220.882 366.789 220.609 368.26 220.58L370.079 220.527V219.895C370.079 218.986 369.895 218.301 369.525 217.838C369.156 217.375 368.562 217.144 367.741 217.144C366.856 217.144 365.939 217.39 364.99 217.882L364.665 217.126C365.714 216.634 366.751 216.388 367.776 216.388C368.825 216.388 369.607 216.66 370.123 217.205C370.645 217.75 370.905 218.6 370.905 219.754V226.108H370.264ZM366.748 225.493C367.768 225.493 368.57 225.203 369.156 224.623C369.748 224.037 370.044 223.226 370.044 222.189V221.248L368.374 221.318C367.032 221.383 366.074 221.594 365.5 221.951C364.932 222.303 364.647 222.854 364.647 223.604C364.647 224.201 364.829 224.667 365.192 225.001C365.562 225.329 366.08 225.493 366.748 225.493ZM377.822 226.284C376.457 226.284 375.388 225.854 374.614 224.992C373.841 224.131 373.454 222.93 373.454 221.389C373.454 219.807 373.855 218.576 374.658 217.697C375.461 216.813 376.56 216.37 377.954 216.37C378.78 216.37 379.571 216.514 380.327 216.801L380.09 217.574C379.264 217.299 378.546 217.161 377.937 217.161C376.765 217.161 375.877 217.524 375.273 218.251C374.67 218.972 374.368 220.012 374.368 221.371C374.368 222.66 374.67 223.671 375.273 224.403C375.877 225.13 376.721 225.493 377.805 225.493C378.672 225.493 379.478 225.338 380.222 225.027V225.836C379.612 226.135 378.812 226.284 377.822 226.284ZM383.421 221.916L388.299 216.555H389.354L385.592 220.633L389.679 226.108H388.633L385.003 221.283L383.438 222.707V226.108H382.568V212.433H383.438V219.288L383.377 221.916H383.421ZM398.828 212.389H399.637V230.556H398.828V212.389ZM420.836 226.108H420.098L417.276 216.194C417.042 215.38 416.866 214.712 416.749 214.19C416.655 214.7 416.521 215.286 416.345 215.948C416.175 216.61 415.231 219.997 413.515 226.108H412.759L409.226 213.259H410.166L412.416 221.538C412.504 221.872 412.586 222.183 412.662 222.47C412.738 222.751 412.806 223.018 412.864 223.27C412.929 223.516 412.984 223.756 413.031 223.99C413.084 224.219 413.131 224.45 413.172 224.685C413.312 223.888 413.611 222.678 414.068 221.055L416.266 213.259H417.259L419.834 222.206C420.133 223.237 420.347 224.069 420.476 224.702C420.552 224.28 420.648 223.832 420.766 223.357C420.889 222.883 421.794 219.517 423.481 213.259H424.387L420.836 226.108ZM433.105 226.108V219.912C433.105 218.951 432.903 218.254 432.499 217.82C432.095 217.381 431.468 217.161 430.618 217.161C429.476 217.161 428.638 217.451 428.104 218.031C427.577 218.606 427.313 219.54 427.313 220.835V226.108H426.443V212.433H427.313V216.783L427.27 218.005H427.331C427.688 217.431 428.14 217.015 428.685 216.757C429.229 216.499 429.906 216.37 430.715 216.37C432.883 216.37 433.967 217.533 433.967 219.859V226.108H433.105ZM437.931 226.108H437.061V216.555H437.931V226.108ZM436.938 213.9C436.938 213.338 437.122 213.057 437.491 213.057C437.673 213.057 437.813 213.13 437.913 213.276C438.019 213.423 438.071 213.631 438.071 213.9C438.071 214.164 438.019 214.372 437.913 214.524C437.813 214.677 437.673 214.753 437.491 214.753C437.122 214.753 436.938 214.469 436.938 213.9ZM443.661 225.511C444.212 225.511 444.692 225.464 445.103 225.37V226.073C444.681 226.214 444.194 226.284 443.644 226.284C442.8 226.284 442.176 226.059 441.771 225.607C441.373 225.156 441.174 224.447 441.174 223.481V217.311H439.759V216.801L441.174 216.405L441.613 214.243H442.062V216.555H444.865V217.311H442.062V223.357C442.062 224.09 442.19 224.632 442.448 224.983C442.706 225.335 443.11 225.511 443.661 225.511ZM451.026 226.284C449.638 226.284 448.554 225.856 447.774 225.001C447.001 224.146 446.614 222.947 446.614 221.406C446.614 219.883 446.989 218.664 447.739 217.75C448.489 216.83 449.5 216.37 450.771 216.37C451.896 216.37 452.784 216.763 453.435 217.548C454.085 218.333 454.41 219.399 454.41 220.747V221.45H447.528C447.54 222.763 447.845 223.765 448.442 224.456C449.046 225.148 449.907 225.493 451.026 225.493C451.571 225.493 452.049 225.455 452.459 225.379C452.875 225.303 453.399 225.139 454.032 224.887V225.678C453.493 225.912 452.995 226.07 452.538 226.152C452.081 226.24 451.577 226.284 451.026 226.284ZM450.771 217.144C449.852 217.144 449.113 217.448 448.557 218.058C448 218.661 447.675 219.534 447.581 220.677H453.487C453.487 219.569 453.247 218.705 452.767 218.084C452.286 217.457 451.621 217.144 450.771 217.144Z" fill="black"/>
<path d="M354.373 131.077H359.11V136.939C357.868 137.466 356.471 137.73 354.918 137.73C352.891 137.73 351.335 137.159 350.251 136.016C349.173 134.868 348.634 133.245 348.634 131.147C348.634 129.84 348.9 128.683 349.434 127.675C349.973 126.662 350.74 125.879 351.736 125.329C352.738 124.778 353.887 124.502 355.182 124.502C356.582 124.502 357.839 124.76 358.952 125.276L358.592 126.084C357.479 125.569 356.324 125.311 355.129 125.311C353.436 125.311 352.091 125.835 351.095 126.884C350.104 127.927 349.609 129.336 349.609 131.112C349.609 133.045 350.081 134.501 351.024 135.48C351.968 136.453 353.354 136.939 355.182 136.939C356.365 136.939 357.37 136.772 358.196 136.438V131.92H354.373V131.077ZM365.983 137.73C364.595 137.73 363.511 137.302 362.731 136.447C361.958 135.591 361.571 134.393 361.571 132.852C361.571 131.329 361.946 130.11 362.696 129.196C363.446 128.276 364.457 127.816 365.729 127.816C366.854 127.816 367.741 128.209 368.392 128.994C369.042 129.779 369.367 130.845 369.367 132.193V132.896H362.485C362.497 134.209 362.802 135.21 363.399 135.902C364.003 136.593 364.864 136.939 365.983 136.939C366.528 136.939 367.006 136.901 367.416 136.825C367.832 136.749 368.356 136.584 368.989 136.333V137.124C368.45 137.358 367.952 137.516 367.495 137.598C367.038 137.686 366.534 137.73 365.983 137.73ZM365.729 128.589C364.809 128.589 364.07 128.894 363.514 129.503C362.957 130.107 362.632 130.98 362.538 132.123H368.444C368.444 131.015 368.204 130.151 367.724 129.53C367.243 128.903 366.578 128.589 365.729 128.589ZM378.666 137.554V131.358C378.666 130.397 378.464 129.7 378.06 129.266C377.655 128.827 377.028 128.607 376.179 128.607C375.036 128.607 374.198 128.897 373.665 129.477C373.138 130.051 372.874 130.986 372.874 132.281V137.554H372.004V128.001H372.742L372.909 129.31H372.962C373.583 128.314 374.688 127.816 376.275 127.816C378.443 127.816 379.527 128.979 379.527 131.305V137.554H378.666ZM383.377 128.001V134.188C383.377 135.149 383.579 135.849 383.983 136.289C384.388 136.722 385.015 136.939 385.864 136.939C387.001 136.939 387.836 136.652 388.369 136.078C388.908 135.503 389.178 134.569 389.178 133.274V128.001H390.039V137.554H389.301L389.143 136.236H389.09C388.469 137.232 387.364 137.73 385.776 137.73C383.603 137.73 382.516 136.567 382.516 134.241V128.001H383.377ZM394.108 137.554H393.238V128.001H394.108V137.554ZM393.115 125.346C393.115 124.784 393.3 124.502 393.669 124.502C393.851 124.502 393.991 124.576 394.091 124.722C394.196 124.869 394.249 125.077 394.249 125.346C394.249 125.61 394.196 125.818 394.091 125.97C393.991 126.123 393.851 126.199 393.669 126.199C393.3 126.199 393.115 125.915 393.115 125.346ZM403.979 137.554V131.358C403.979 130.397 403.776 129.7 403.372 129.266C402.968 128.827 402.341 128.607 401.491 128.607C400.349 128.607 399.511 128.897 398.978 129.477C398.45 130.051 398.187 130.986 398.187 132.281V137.554H397.316V128.001H398.055L398.222 129.31H398.274C398.896 128.314 400 127.816 401.588 127.816C403.756 127.816 404.84 128.979 404.84 131.305V137.554H403.979ZM411.792 137.73C410.403 137.73 409.319 137.302 408.54 136.447C407.767 135.591 407.38 134.393 407.38 132.852C407.38 131.329 407.755 130.11 408.505 129.196C409.255 128.276 410.266 127.816 411.537 127.816C412.662 127.816 413.55 128.209 414.2 128.994C414.851 129.779 415.176 130.845 415.176 132.193V132.896H408.294C408.306 134.209 408.61 135.21 409.208 135.902C409.812 136.593 410.673 136.939 411.792 136.939C412.337 136.939 412.814 136.901 413.225 136.825C413.641 136.749 414.165 136.584 414.798 136.333V137.124C414.259 137.358 413.761 137.516 413.304 137.598C412.847 137.686 412.343 137.73 411.792 137.73ZM411.537 128.589C410.617 128.589 409.879 128.894 409.322 129.503C408.766 130.107 408.44 130.98 408.347 132.123H414.253C414.253 131.015 414.013 130.151 413.532 129.53C413.052 128.903 412.387 128.589 411.537 128.589ZM422.708 137.554V124.705H423.604V136.71H429.73V137.554H422.708ZM435.593 137.73C434.204 137.73 433.12 137.302 432.341 136.447C431.567 135.591 431.181 134.393 431.181 132.852C431.181 131.329 431.556 130.11 432.306 129.196C433.056 128.276 434.066 127.816 435.338 127.816C436.463 127.816 437.351 128.209 438.001 128.994C438.651 129.779 438.977 130.845 438.977 132.193V132.896H432.095C432.106 134.209 432.411 135.21 433.009 135.902C433.612 136.593 434.474 136.939 435.593 136.939C436.138 136.939 436.615 136.901 437.025 136.825C437.441 136.749 437.966 136.584 438.599 136.333V137.124C438.06 137.358 437.562 137.516 437.104 137.598C436.647 137.686 436.144 137.73 435.593 137.73ZM435.338 128.589C434.418 128.589 433.68 128.894 433.123 129.503C432.566 130.107 432.241 130.98 432.147 132.123H438.054C438.054 131.015 437.813 130.151 437.333 129.53C436.853 128.903 436.188 128.589 435.338 128.589ZM447.414 137.554L447.194 136.043H447.124C446.644 136.658 446.148 137.094 445.639 137.352C445.135 137.604 444.537 137.73 443.846 137.73C442.908 137.73 442.179 137.49 441.657 137.009C441.136 136.529 440.875 135.864 440.875 135.014C440.875 134.083 441.262 133.359 442.035 132.843C442.814 132.328 443.939 132.055 445.41 132.026L447.229 131.973V131.34C447.229 130.432 447.045 129.747 446.676 129.284C446.307 128.821 445.712 128.589 444.892 128.589C444.007 128.589 443.09 128.835 442.141 129.328L441.815 128.572C442.864 128.08 443.901 127.834 444.927 127.834C445.976 127.834 446.758 128.106 447.273 128.651C447.795 129.196 448.056 130.045 448.056 131.2V137.554H447.414ZM443.898 136.939C444.918 136.939 445.721 136.649 446.307 136.069C446.898 135.483 447.194 134.671 447.194 133.634V132.694L445.524 132.764C444.183 132.829 443.225 133.04 442.65 133.397C442.082 133.749 441.798 134.299 441.798 135.049C441.798 135.647 441.979 136.113 442.343 136.447C442.712 136.775 443.23 136.939 443.898 136.939ZM453.681 136.957C454.231 136.957 454.712 136.91 455.122 136.816V137.519C454.7 137.66 454.214 137.73 453.663 137.73C452.819 137.73 452.195 137.504 451.791 137.053C451.393 136.602 451.193 135.893 451.193 134.926V128.756H449.778V128.247L451.193 127.851L451.633 125.689H452.081V128.001H454.885V128.756H452.081V134.803C452.081 135.536 452.21 136.078 452.468 136.429C452.726 136.781 453.13 136.957 453.681 136.957ZM463.85 137.554V131.358C463.85 130.397 463.647 129.7 463.243 129.266C462.839 128.827 462.212 128.607 461.362 128.607C460.22 128.607 459.382 128.897 458.849 129.477C458.321 130.051 458.058 130.986 458.058 132.281V137.554H457.188V123.878H458.058V128.229L458.014 129.451H458.075C458.433 128.876 458.884 128.46 459.429 128.203C459.974 127.945 460.65 127.816 461.459 127.816C463.627 127.816 464.711 128.979 464.711 131.305V137.554H463.85ZM471.663 137.73C470.274 137.73 469.19 137.302 468.411 136.447C467.638 135.591 467.251 134.393 467.251 132.852C467.251 131.329 467.626 130.11 468.376 129.196C469.126 128.276 470.137 127.816 471.408 127.816C472.533 127.816 473.421 128.209 474.071 128.994C474.722 129.779 475.047 130.845 475.047 132.193V132.896H468.165C468.177 134.209 468.481 135.21 469.079 135.902C469.683 136.593 470.544 136.939 471.663 136.939C472.208 136.939 472.686 136.901 473.096 136.825C473.512 136.749 474.036 136.584 474.669 136.333V137.124C474.13 137.358 473.632 137.516 473.175 137.598C472.718 137.686 472.214 137.73 471.663 137.73ZM471.408 128.589C470.488 128.589 469.75 128.894 469.193 129.503C468.637 130.107 468.312 130.98 468.218 132.123H474.124C474.124 131.015 473.884 130.151 473.403 129.53C472.923 128.903 472.258 128.589 471.408 128.589ZM481.445 127.816C481.85 127.816 482.283 127.857 482.746 127.939L482.579 128.774C482.181 128.674 481.768 128.625 481.34 128.625C480.525 128.625 479.857 128.97 479.336 129.662C478.814 130.353 478.554 131.226 478.554 132.281V137.554H477.684V128.001H478.422L478.51 129.723H478.571C478.964 129.02 479.383 128.528 479.828 128.247C480.273 127.959 480.812 127.816 481.445 127.816ZM492.238 123.834H493.047V142.001H492.238V123.834ZM511.1 134.241C511.1 135.313 510.704 136.163 509.913 136.79C509.128 137.417 508.082 137.73 506.775 137.73C505.205 137.73 504.001 137.557 503.163 137.211V136.315C504.089 136.708 505.27 136.904 506.705 136.904C507.76 136.904 508.595 136.664 509.21 136.183C509.831 135.697 510.142 135.061 510.142 134.276C510.142 133.79 510.039 133.388 509.834 133.072C509.629 132.75 509.295 132.457 508.832 132.193C508.369 131.929 507.689 131.645 506.793 131.34C505.48 130.889 504.572 130.403 504.068 129.881C503.57 129.354 503.321 128.654 503.321 127.781C503.321 126.82 503.696 126.038 504.446 125.434C505.202 124.825 506.172 124.52 507.355 124.52C508.562 124.52 509.696 124.749 510.757 125.206L510.432 125.979C509.365 125.534 508.346 125.311 507.373 125.311C506.424 125.311 505.668 125.531 505.105 125.97C504.543 126.41 504.262 127.007 504.262 127.763C504.262 128.238 504.347 128.627 504.517 128.932C504.692 129.237 504.977 129.512 505.369 129.758C505.762 129.999 506.436 130.289 507.391 130.628C508.393 130.974 509.146 131.311 509.649 131.639C510.153 131.961 510.52 132.331 510.748 132.747C510.982 133.157 511.1 133.655 511.1 134.241ZM516.118 136.957C516.669 136.957 517.149 136.91 517.56 136.816V137.519C517.138 137.66 516.651 137.73 516.101 137.73C515.257 137.73 514.633 137.504 514.229 137.053C513.83 136.602 513.631 135.893 513.631 134.926V128.756H512.216V128.247L513.631 127.851L514.07 125.689H514.519V128.001H517.322V128.756H514.519V134.803C514.519 135.536 514.647 136.078 514.905 136.429C515.163 136.781 515.567 136.957 516.118 136.957ZM525.426 137.554L525.206 136.043H525.136C524.655 136.658 524.16 137.094 523.65 137.352C523.146 137.604 522.549 137.73 521.857 137.73C520.92 137.73 520.19 137.49 519.669 137.009C519.147 136.529 518.887 135.864 518.887 135.014C518.887 134.083 519.273 133.359 520.047 132.843C520.826 132.328 521.951 132.055 523.422 132.026L525.241 131.973V131.34C525.241 130.432 525.057 129.747 524.688 129.284C524.318 128.821 523.724 128.589 522.903 128.589C522.019 128.589 521.102 128.835 520.152 129.328L519.827 128.572C520.876 128.08 521.913 127.834 522.938 127.834C523.987 127.834 524.77 128.106 525.285 128.651C525.807 129.196 526.067 130.045 526.067 131.2V137.554H525.426ZM521.91 136.939C522.93 136.939 523.732 136.649 524.318 136.069C524.91 135.483 525.206 134.671 525.206 133.634V132.694L523.536 132.764C522.194 132.829 521.236 133.04 520.662 133.397C520.094 133.749 519.81 134.299 519.81 135.049C519.81 135.647 519.991 136.113 520.354 136.447C520.724 136.775 521.242 136.939 521.91 136.939ZM530.04 137.554H529.17V128.001H530.04V137.554ZM529.047 125.346C529.047 124.784 529.231 124.502 529.601 124.502C529.782 124.502 529.923 124.576 530.022 124.722C530.128 124.869 530.181 125.077 530.181 125.346C530.181 125.61 530.128 125.818 530.022 125.97C529.923 126.123 529.782 126.199 529.601 126.199C529.231 126.199 529.047 125.915 529.047 125.346ZM539.91 137.554V131.358C539.91 130.397 539.708 129.7 539.304 129.266C538.899 128.827 538.272 128.607 537.423 128.607C536.28 128.607 535.442 128.897 534.909 129.477C534.382 130.051 534.118 130.986 534.118 132.281V137.554H533.248V128.001H533.986L534.153 129.31H534.206C534.827 128.314 535.932 127.816 537.52 127.816C539.688 127.816 540.771 128.979 540.771 131.305V137.554H539.91ZM544.735 137.554H543.865V123.878H544.735V137.554ZM551.802 137.73C550.413 137.73 549.329 137.302 548.55 136.447C547.776 135.591 547.39 134.393 547.39 132.852C547.39 131.329 547.765 130.11 548.515 129.196C549.265 128.276 550.275 127.816 551.547 127.816C552.672 127.816 553.56 128.209 554.21 128.994C554.86 129.779 555.186 130.845 555.186 132.193V132.896H548.304C548.315 134.209 548.62 135.21 549.218 135.902C549.821 136.593 550.683 136.939 551.802 136.939C552.347 136.939 552.824 136.901 553.234 136.825C553.65 136.749 554.175 136.584 554.808 136.333V137.124C554.269 137.358 553.771 137.516 553.313 137.598C552.856 137.686 552.353 137.73 551.802 137.73ZM551.547 128.589C550.627 128.589 549.889 128.894 549.332 129.503C548.775 130.107 548.45 130.98 548.356 132.123H554.263C554.263 131.015 554.022 130.151 553.542 129.53C553.062 128.903 552.396 128.589 551.547 128.589ZM563.746 135.067C563.746 135.922 563.421 136.582 562.771 137.044C562.12 137.501 561.197 137.73 560.002 137.73C558.725 137.73 557.711 137.534 556.961 137.141V136.201C557.922 136.681 558.936 136.921 560.002 136.921C560.945 136.921 561.66 136.766 562.146 136.456C562.639 136.139 562.885 135.72 562.885 135.199C562.885 134.718 562.688 134.314 562.296 133.986C561.909 133.658 561.271 133.335 560.38 133.019C559.425 132.673 558.754 132.377 558.367 132.131C557.98 131.879 557.688 131.598 557.488 131.288C557.295 130.971 557.198 130.587 557.198 130.136C557.198 129.421 557.497 128.856 558.095 128.44C558.698 128.024 559.539 127.816 560.617 127.816C561.648 127.816 562.627 128.009 563.553 128.396L563.228 129.187C562.29 128.8 561.42 128.607 560.617 128.607C559.838 128.607 559.22 128.736 558.763 128.994C558.306 129.251 558.077 129.609 558.077 130.066C558.077 130.564 558.253 130.962 558.604 131.261C558.962 131.56 559.656 131.894 560.688 132.263C561.549 132.574 562.176 132.855 562.568 133.107C562.961 133.353 563.254 133.634 563.447 133.951C563.646 134.267 563.746 134.639 563.746 135.067ZM572.131 135.067C572.131 135.922 571.806 136.582 571.155 137.044C570.505 137.501 569.582 137.73 568.387 137.73C567.109 137.73 566.096 137.534 565.346 137.141V136.201C566.307 136.681 567.32 136.921 568.387 136.921C569.33 136.921 570.045 136.766 570.531 136.456C571.023 136.139 571.27 135.72 571.27 135.199C571.27 134.718 571.073 134.314 570.681 133.986C570.294 133.658 569.655 133.335 568.765 133.019C567.81 132.673 567.139 132.377 566.752 132.131C566.365 131.879 566.072 131.598 565.873 131.288C565.68 130.971 565.583 130.587 565.583 130.136C565.583 129.421 565.882 128.856 566.479 128.44C567.083 128.024 567.924 127.816 569.002 127.816C570.033 127.816 571.012 128.009 571.938 128.396L571.612 129.187C570.675 128.8 569.805 128.607 569.002 128.607C568.223 128.607 567.604 128.736 567.147 128.994C566.69 129.251 566.462 129.609 566.462 130.066C566.462 130.564 566.638 130.962 566.989 131.261C567.347 131.56 568.041 131.894 569.072 132.263C569.934 132.574 570.561 132.855 570.953 133.107C571.346 133.353 571.639 133.634 571.832 133.951C572.031 134.267 572.131 134.639 572.131 135.067ZM586.58 134.241C586.58 135.313 586.185 136.163 585.394 136.79C584.608 137.417 583.562 137.73 582.256 137.73C580.686 137.73 579.481 137.557 578.644 137.211V136.315C579.569 136.708 580.75 136.904 582.186 136.904C583.24 136.904 584.075 136.664 584.69 136.183C585.312 135.697 585.622 135.061 585.622 134.276C585.622 133.79 585.52 133.388 585.314 133.072C585.109 132.75 584.775 132.457 584.312 132.193C583.85 131.929 583.17 131.645 582.273 131.34C580.961 130.889 580.053 130.403 579.549 129.881C579.051 129.354 578.802 128.654 578.802 127.781C578.802 126.82 579.177 126.038 579.927 125.434C580.683 124.825 581.652 124.52 582.836 124.52C584.043 124.52 585.177 124.749 586.237 125.206L585.912 125.979C584.846 125.534 583.826 125.311 582.854 125.311C581.904 125.311 581.148 125.531 580.586 125.97C580.023 126.41 579.742 127.007 579.742 127.763C579.742 128.238 579.827 128.627 579.997 128.932C580.173 129.237 580.457 129.512 580.85 129.758C581.242 129.999 581.916 130.289 582.871 130.628C583.873 130.974 584.626 131.311 585.13 131.639C585.634 131.961 586 132.331 586.229 132.747C586.463 133.157 586.58 133.655 586.58 134.241ZM591.599 136.957C592.149 136.957 592.63 136.91 593.04 136.816V137.519C592.618 137.66 592.132 137.73 591.581 137.73C590.737 137.73 590.113 137.504 589.709 137.053C589.311 136.602 589.111 135.893 589.111 134.926V128.756H587.696V128.247L589.111 127.851L589.551 125.689H589.999V128.001H592.803V128.756H589.999V134.803C589.999 135.536 590.128 136.078 590.386 136.429C590.644 136.781 591.048 136.957 591.599 136.957ZM598.964 137.73C597.575 137.73 596.491 137.302 595.712 136.447C594.938 135.591 594.552 134.393 594.552 132.852C594.552 131.329 594.927 130.11 595.677 129.196C596.427 128.276 597.438 127.816 598.709 127.816C599.834 127.816 600.722 128.209 601.372 128.994C602.022 129.779 602.348 130.845 602.348 132.193V132.896H595.466C595.478 134.209 595.782 135.21 596.38 135.902C596.983 136.593 597.845 136.939 598.964 136.939C599.509 136.939 599.986 136.901 600.396 136.825C600.812 136.749 601.337 136.584 601.97 136.333V137.124C601.431 137.358 600.933 137.516 600.476 137.598C600.019 137.686 599.515 137.73 598.964 137.73ZM598.709 128.589C597.789 128.589 597.051 128.894 596.494 129.503C595.938 130.107 595.612 130.98 595.519 132.123H601.425C601.425 131.015 601.185 130.151 600.704 129.53C600.224 128.903 599.559 128.589 598.709 128.589ZM608.843 137.73C607.454 137.73 606.37 137.302 605.591 136.447C604.817 135.591 604.431 134.393 604.431 132.852C604.431 131.329 604.806 130.11 605.556 129.196C606.306 128.276 607.316 127.816 608.588 127.816C609.713 127.816 610.601 128.209 611.251 128.994C611.901 129.779 612.227 130.845 612.227 132.193V132.896H605.345C605.356 134.209 605.661 135.21 606.259 135.902C606.862 136.593 607.724 136.939 608.843 136.939C609.388 136.939 609.865 136.901 610.275 136.825C610.691 136.749 611.216 136.584 611.849 136.333V137.124C611.31 137.358 610.812 137.516 610.354 137.598C609.897 137.686 609.394 137.73 608.843 137.73ZM608.588 128.589C607.668 128.589 606.93 128.894 606.373 129.503C605.816 130.107 605.491 130.98 605.397 132.123H611.304C611.304 131.015 611.063 130.151 610.583 129.53C610.103 128.903 609.438 128.589 608.588 128.589ZM615.733 137.554H614.863V123.878H615.733V137.554Z" fill="black"/>
<path d="M21.6568 49.144C20.3968 49.144 19.2568 48.868 18.2368 48.316C17.2288 47.752 16.4368 46.984 15.8608 46.012C15.2848 45.028 14.9968 43.924 14.9968 42.7C14.9968 41.476 15.2848 40.378 15.8608 39.406C16.4368 38.422 17.2348 37.654 18.2548 37.102C19.2748 36.538 20.4148 36.256 21.6748 36.256C22.6588 36.256 23.5588 36.424 24.3748 36.76C25.1908 37.084 25.8868 37.57 26.4628 38.218L25.2928 39.352C24.3448 38.356 23.1628 37.858 21.7468 37.858C20.8108 37.858 19.9648 38.068 19.2088 38.488C18.4528 38.908 17.8588 39.49 17.4268 40.234C17.0068 40.966 16.7968 41.788 16.7968 42.7C16.7968 43.612 17.0068 44.44 17.4268 45.184C17.8588 45.916 18.4528 46.492 19.2088 46.912C19.9648 47.332 20.8108 47.542 21.7468 47.542C23.1508 47.542 24.3328 47.038 25.2928 46.03L26.4628 47.164C25.8868 47.812 25.1848 48.304 24.3568 48.64C23.5408 48.976 22.6408 49.144 21.6568 49.144ZM36.7598 45.85H30.0638L28.6778 49H26.8238L32.5298 36.4H34.3118L40.0358 49H38.1458L36.7598 45.85ZM36.1298 44.41L33.4118 38.236L30.6938 44.41H36.1298ZM45.5874 49.144C44.6394 49.144 43.7214 49 42.8334 48.712C41.9574 48.412 41.2674 48.028 40.7634 47.56L41.4294 46.156C41.9094 46.588 42.5214 46.942 43.2654 47.218C44.0214 47.482 44.7954 47.614 45.5874 47.614C46.6314 47.614 47.4114 47.44 47.9274 47.092C48.4434 46.732 48.7014 46.258 48.7014 45.67C48.7014 45.238 48.5574 44.89 48.2694 44.626C47.9934 44.35 47.6454 44.14 47.2254 43.996C46.8174 43.852 46.2354 43.69 45.4794 43.51C44.5314 43.282 43.7634 43.054 43.1754 42.826C42.5994 42.598 42.1014 42.25 41.6814 41.782C41.2734 41.302 41.0694 40.66 41.0694 39.856C41.0694 39.184 41.2434 38.578 41.5914 38.038C41.9514 37.498 42.4914 37.066 43.2114 36.742C43.9314 36.418 44.8254 36.256 45.8934 36.256C46.6374 36.256 47.3694 36.352 48.0894 36.544C48.8094 36.736 49.4274 37.012 49.9434 37.372L49.3494 38.812C48.8214 38.476 48.2574 38.224 47.6574 38.056C47.0574 37.876 46.4694 37.786 45.8934 37.786C44.8734 37.786 44.1054 37.972 43.5894 38.344C43.0854 38.716 42.8334 39.196 42.8334 39.784C42.8334 40.216 42.9774 40.57 43.2654 40.846C43.5534 41.11 43.9074 41.32 44.3274 41.476C44.7594 41.62 45.3414 41.776 46.0734 41.944C47.0214 42.172 47.7834 42.4 48.3594 42.628C48.9354 42.856 49.4274 43.204 49.8354 43.672C50.2554 44.14 50.4654 44.77 50.4654 45.562C50.4654 46.222 50.2854 46.828 49.9254 47.38C49.5654 47.92 49.0194 48.352 48.2874 48.676C47.5554 48.988 46.6554 49.144 45.5874 49.144ZM62.2391 47.434V49H53.0951V36.4H61.9871V37.966H54.8951V41.836H61.2131V43.366H54.8951V47.434H62.2391ZM81.6697 49L81.6517 39.82L77.0977 47.47H76.2697L71.7157 39.874V49H69.9877V36.4H71.4637L76.7197 45.256L81.9037 36.4H83.3797L83.3977 49H81.6697ZM95.2071 45.85H88.5111L87.1251 49H85.2711L90.9771 36.4H92.7591L98.4831 49H96.5931L95.2071 45.85ZM94.5771 44.41L91.8591 38.236L89.1411 44.41H94.5771ZM102.232 37.966H97.9118V36.4H108.334V37.966H104.014V49H102.232V37.966ZM119.438 47.434V49H110.294V36.4H119.186V37.966H112.094V41.836H118.412V43.366H112.094V47.434H119.438ZM130.777 49L128.059 45.13C127.723 45.154 127.459 45.166 127.267 45.166H124.153V49H122.353V36.4H127.267C128.899 36.4 130.183 36.79 131.119 37.57C132.055 38.35 132.523 39.424 132.523 40.792C132.523 41.764 132.283 42.592 131.803 43.276C131.323 43.96 130.639 44.458 129.751 44.77L132.739 49H130.777ZM127.213 43.636C128.353 43.636 129.223 43.39 129.823 42.898C130.423 42.406 130.723 41.704 130.723 40.792C130.723 39.88 130.423 39.184 129.823 38.704C129.223 38.212 128.353 37.966 127.213 37.966H124.153V43.636H127.213ZM135.431 36.4H137.231V49H135.431V36.4ZM149.031 45.85H142.335L140.949 49H139.095L144.801 36.4H146.583L152.307 49H150.417L149.031 45.85ZM148.401 44.41L145.683 38.236L142.965 44.41H148.401ZM154.187 36.4H155.987V47.434H162.809V49H154.187V36.4Z" fill="black"/>
<path d="M16.0228 302.063H21.3328C22.6648 302.063 23.8468 302.327 24.8788 302.855C25.9108 303.383 26.7088 304.127 27.2728 305.087C27.8488 306.035 28.1368 307.127 28.1368 308.363C28.1368 309.599 27.8488 310.697 27.2728 311.657C26.7088 312.605 25.9108 313.343 24.8788 313.871C23.8468 314.399 22.6648 314.663 21.3328 314.663H16.0228V302.063ZM21.2248 313.097C22.2448 313.097 23.1388 312.899 23.9068 312.503C24.6868 312.107 25.2868 311.555 25.7068 310.847C26.1268 310.127 26.3368 309.299 26.3368 308.363C26.3368 307.427 26.1268 306.605 25.7068 305.897C25.2868 305.177 24.6868 304.619 23.9068 304.223C23.1388 303.827 22.2448 303.629 21.2248 303.629H17.8228V313.097H21.2248ZM30.8939 302.063H32.6939V314.663H30.8939V302.063ZM44.4942 311.513H37.7982L36.4122 314.663H34.5582L40.2642 302.063H42.0462L47.7702 314.663H45.8802L44.4942 311.513ZM43.8642 310.073L41.1462 303.899L38.4282 310.073H43.8642ZM49.6498 302.063H51.4498V313.097H58.2718V314.663H49.6498V302.063ZM65.1713 302.063H70.4813C71.8133 302.063 72.9953 302.327 74.0273 302.855C75.0593 303.383 75.8573 304.127 76.4213 305.087C76.9973 306.035 77.2853 307.127 77.2853 308.363C77.2853 309.599 76.9973 310.697 76.4213 311.657C75.8573 312.605 75.0593 313.343 74.0273 313.871C72.9953 314.399 71.8133 314.663 70.4813 314.663H65.1713V302.063ZM70.3733 313.097C71.3933 313.097 72.2873 312.899 73.0553 312.503C73.8353 312.107 74.4353 311.555 74.8553 310.847C75.2753 310.127 75.4853 309.299 75.4853 308.363C75.4853 307.427 75.2753 306.605 74.8553 305.897C74.4353 305.177 73.8353 304.619 73.0553 304.223C72.2873 303.827 71.3933 303.629 70.3733 303.629H66.9713V313.097H70.3733ZM89.1863 313.097V314.663H80.0423V302.063H88.9343V303.629H81.8423V307.499H88.1603V309.029H81.8423V313.097H89.1863ZM94.6029 303.629H90.2829V302.063H100.705V303.629H96.3849V314.663H94.6029V303.629ZM110.061 311.513H103.365L101.979 314.663H100.125L105.831 302.063H107.613L113.337 314.663H111.447L110.061 311.513ZM109.431 310.073L106.713 303.899L103.995 310.073H109.431ZM115.216 302.063H117.016V314.663H115.216V302.063ZM120.788 302.063H122.588V313.097H129.41V314.663H120.788V302.063ZM135.025 314.807C134.077 314.807 133.159 314.663 132.271 314.375C131.395 314.075 130.705 313.691 130.201 313.223L130.867 311.819C131.347 312.251 131.959 312.605 132.703 312.881C133.459 313.145 134.233 313.277 135.025 313.277C136.069 313.277 136.849 313.103 137.365 312.755C137.881 312.395 138.139 311.921 138.139 311.333C138.139 310.901 137.995 310.553 137.707 310.289C137.431 310.013 137.083 309.803 136.663 309.659C136.255 309.515 135.673 309.353 134.917 309.173C133.969 308.945 133.201 308.717 132.613 308.489C132.037 308.261 131.539 307.913 131.119 307.445C130.711 306.965 130.507 306.323 130.507 305.519C130.507 304.847 130.681 304.241 131.029 303.701C131.389 303.161 131.929 302.729 132.649 302.405C133.369 302.081 134.263 301.919 135.331 301.919C136.075 301.919 136.807 302.015 137.527 302.207C138.247 302.399 138.865 302.675 139.381 303.035L138.787 304.475C138.259 304.139 137.695 303.887 137.095 303.719C136.495 303.539 135.907 303.449 135.331 303.449C134.311 303.449 133.543 303.635 133.027 304.007C132.523 304.379 132.271 304.859 132.271 305.447C132.271 305.879 132.415 306.233 132.703 306.509C132.991 306.773 133.345 306.983 133.765 307.139C134.197 307.283 134.779 307.439 135.511 307.607C136.459 307.835 137.221 308.063 137.797 308.291C138.373 308.519 138.865 308.867 139.273 309.335C139.693 309.803 139.903 310.433 139.903 311.225C139.903 311.885 139.723 312.491 139.363 313.043C139.003 313.583 138.457 314.015 137.725 314.339C136.993 314.651 136.093 314.807 135.025 314.807Z" fill="black"/>
<path d="M356.412 45.6865C356.412 46.7588 356.017 47.6084 355.226 48.2354C354.44 48.8623 353.395 49.1758 352.088 49.1758C350.518 49.1758 349.313 49.0029 348.476 48.6572V47.7607C349.401 48.1533 350.582 48.3496 352.018 48.3496C353.072 48.3496 353.907 48.1094 354.522 47.6289C355.144 47.1426 355.454 46.5068 355.454 45.7217C355.454 45.2354 355.352 44.834 355.146 44.5176C354.941 44.1953 354.607 43.9023 354.145 43.6387C353.682 43.375 353.002 43.0908 352.105 42.7861C350.793 42.335 349.885 41.8486 349.381 41.3271C348.883 40.7998 348.634 40.0996 348.634 39.2266C348.634 38.2656 349.009 37.4834 349.759 36.8799C350.515 36.2705 351.484 35.9658 352.668 35.9658C353.875 35.9658 355.009 36.1943 356.069 36.6514L355.744 37.4248C354.678 36.9795 353.658 36.7568 352.686 36.7568C351.736 36.7568 350.98 36.9766 350.418 37.416C349.855 37.8555 349.574 38.4531 349.574 39.209C349.574 39.6836 349.659 40.0732 349.829 40.3779C350.005 40.6826 350.289 40.958 350.682 41.2041C351.074 41.4443 351.748 41.7344 352.703 42.0742C353.705 42.4199 354.458 42.7568 354.962 43.085C355.466 43.4072 355.832 43.7764 356.061 44.1924C356.295 44.6025 356.412 45.1006 356.412 45.6865ZM361.431 48.4023C361.981 48.4023 362.462 48.3555 362.872 48.2617V48.9648C362.45 49.1055 361.964 49.1758 361.413 49.1758C360.569 49.1758 359.945 48.9502 359.541 48.499C359.143 48.0479 358.943 47.3389 358.943 46.3721V40.2021H357.528V39.6924L358.943 39.2969L359.383 37.1348H359.831V39.4463H362.635V40.2021H359.831V46.249C359.831 46.9814 359.96 47.5234 360.218 47.875C360.476 48.2266 360.88 48.4023 361.431 48.4023ZM370.738 49L370.519 47.4883H370.448C369.968 48.1035 369.473 48.54 368.963 48.7979C368.459 49.0498 367.861 49.1758 367.17 49.1758C366.232 49.1758 365.503 48.9355 364.981 48.4551C364.46 47.9746 364.199 47.3096 364.199 46.46C364.199 45.5283 364.586 44.8047 365.359 44.2891C366.139 43.7734 367.264 43.501 368.734 43.4717L370.554 43.4189V42.7861C370.554 41.8779 370.369 41.1924 370 40.7295C369.631 40.2666 369.036 40.0352 368.216 40.0352C367.331 40.0352 366.414 40.2812 365.465 40.7734L365.14 40.0176C366.188 39.5254 367.226 39.2793 368.251 39.2793C369.3 39.2793 370.082 39.5518 370.598 40.0967C371.119 40.6416 371.38 41.4912 371.38 42.6455V49H370.738ZM367.223 48.3848C368.242 48.3848 369.045 48.0947 369.631 47.5146C370.223 46.9287 370.519 46.1172 370.519 45.0801V44.1396L368.849 44.21C367.507 44.2744 366.549 44.4854 365.975 44.8428C365.406 45.1943 365.122 45.7451 365.122 46.4951C365.122 47.0928 365.304 47.5586 365.667 47.8926C366.036 48.2207 366.555 48.3848 367.223 48.3848ZM375.353 49H374.482V39.4463H375.353V49ZM374.359 36.792C374.359 36.2295 374.544 35.9482 374.913 35.9482C375.095 35.9482 375.235 36.0215 375.335 36.168C375.44 36.3145 375.493 36.5225 375.493 36.792C375.493 37.0557 375.44 37.2637 375.335 37.416C375.235 37.5684 375.095 37.6445 374.913 37.6445C374.544 37.6445 374.359 37.3604 374.359 36.792ZM385.223 49V42.8037C385.223 41.8428 385.021 41.1455 384.616 40.7119C384.212 40.2725 383.585 40.0527 382.735 40.0527C381.593 40.0527 380.755 40.3428 380.222 40.9229C379.694 41.4971 379.431 42.4316 379.431 43.7266V49H378.561V39.4463H379.299L379.466 40.7559H379.519C380.14 39.7598 381.244 39.2617 382.832 39.2617C385 39.2617 386.084 40.4248 386.084 42.751V49H385.223ZM390.048 49H389.178V35.3242H390.048V49ZM397.114 49.1758C395.726 49.1758 394.642 48.748 393.862 47.8926C393.089 47.0371 392.702 45.8389 392.702 44.2979C392.702 42.7744 393.077 41.5557 393.827 40.6416C394.577 39.7217 395.588 39.2617 396.859 39.2617C397.984 39.2617 398.872 39.6543 399.522 40.4395C400.173 41.2246 400.498 42.291 400.498 43.6387V44.3418H393.616C393.628 45.6543 393.933 46.6562 394.53 47.3477C395.134 48.0391 395.995 48.3848 397.114 48.3848C397.659 48.3848 398.137 48.3467 398.547 48.2705C398.963 48.1943 399.487 48.0303 400.12 47.7783V48.5693C399.581 48.8037 399.083 48.9619 398.626 49.0439C398.169 49.1318 397.665 49.1758 397.114 49.1758ZM396.859 40.0352C395.939 40.0352 395.201 40.3398 394.645 40.9492C394.088 41.5527 393.763 42.4258 393.669 43.5684H399.575C399.575 42.4609 399.335 41.5967 398.854 40.9756C398.374 40.3486 397.709 40.0352 396.859 40.0352ZM409.059 46.5127C409.059 47.3682 408.733 48.0273 408.083 48.4902C407.433 48.9473 406.51 49.1758 405.314 49.1758C404.037 49.1758 403.023 48.9795 402.273 48.5869V47.6465C403.234 48.127 404.248 48.3672 405.314 48.3672C406.258 48.3672 406.973 48.2119 407.459 47.9014C407.951 47.585 408.197 47.166 408.197 46.6445C408.197 46.1641 408.001 45.7598 407.608 45.4316C407.222 45.1035 406.583 44.7812 405.692 44.4648C404.737 44.1191 404.066 43.8232 403.68 43.5771C403.293 43.3252 403 43.0439 402.801 42.7334C402.607 42.417 402.511 42.0332 402.511 41.582C402.511 40.8672 402.81 40.3018 403.407 39.8857C404.011 39.4697 404.852 39.2617 405.93 39.2617C406.961 39.2617 407.939 39.4551 408.865 39.8418L408.54 40.6328C407.603 40.2461 406.732 40.0527 405.93 40.0527C405.15 40.0527 404.532 40.1816 404.075 40.4395C403.618 40.6973 403.39 41.0547 403.39 41.5117C403.39 42.0098 403.565 42.4082 403.917 42.707C404.274 43.0059 404.969 43.3398 406 43.709C406.861 44.0195 407.488 44.3008 407.881 44.5527C408.273 44.7988 408.566 45.0801 408.76 45.3965C408.959 45.7129 409.059 46.085 409.059 46.5127ZM417.443 46.5127C417.443 47.3682 417.118 48.0273 416.468 48.4902C415.817 48.9473 414.895 49.1758 413.699 49.1758C412.422 49.1758 411.408 48.9795 410.658 48.5869V47.6465C411.619 48.127 412.633 48.3672 413.699 48.3672C414.643 48.3672 415.357 48.2119 415.844 47.9014C416.336 47.585 416.582 47.166 416.582 46.6445C416.582 46.1641 416.386 45.7598 415.993 45.4316C415.606 45.1035 414.968 44.7812 414.077 44.4648C413.122 44.1191 412.451 43.8232 412.064 43.5771C411.678 43.3252 411.385 43.0439 411.186 42.7334C410.992 42.417 410.896 42.0332 410.896 41.582C410.896 40.8672 411.194 40.3018 411.792 39.8857C412.396 39.4697 413.236 39.2617 414.314 39.2617C415.346 39.2617 416.324 39.4551 417.25 39.8418L416.925 40.6328C415.987 40.2461 415.117 40.0527 414.314 40.0527C413.535 40.0527 412.917 40.1816 412.46 40.4395C412.003 40.6973 411.774 41.0547 411.774 41.5117C411.774 42.0098 411.95 42.4082 412.302 42.707C412.659 43.0059 413.354 43.3398 414.385 43.709C415.246 44.0195 415.873 44.3008 416.266 44.5527C416.658 44.7988 416.951 45.0801 417.145 45.3965C417.344 45.7129 417.443 46.085 417.443 46.5127ZM430.987 44.4648H425.767L423.974 49H422.98L428.148 36.0977H428.72L433.782 49H432.771L430.987 44.4648ZM426.092 43.6562H430.688L428.939 39.0244C428.793 38.6611 428.617 38.1572 428.412 37.5127C428.254 38.0752 428.081 38.585 427.894 39.042L426.092 43.6562ZM436.261 49H435.391V35.3242H436.261V49ZM440.339 49H439.469V35.3242H440.339V49ZM451.448 44.21C451.448 45.7686 451.07 46.9873 450.314 47.8662C449.559 48.7393 448.516 49.1758 447.186 49.1758C446.348 49.1758 445.609 48.9736 444.971 48.5693C444.332 48.165 443.843 47.585 443.503 46.8291C443.163 46.0732 442.993 45.2002 442.993 44.21C442.993 42.6514 443.371 41.4385 444.127 40.5713C444.883 39.6982 445.92 39.2617 447.238 39.2617C448.551 39.2617 449.579 39.7041 450.323 40.5889C451.073 41.4678 451.448 42.6748 451.448 44.21ZM443.907 44.21C443.907 45.5225 444.194 46.5479 444.769 47.2861C445.349 48.0186 446.166 48.3848 447.221 48.3848C448.275 48.3848 449.09 48.0186 449.664 47.2861C450.244 46.5479 450.534 45.5225 450.534 44.21C450.534 42.8916 450.241 41.8691 449.655 41.1426C449.075 40.416 448.258 40.0527 447.203 40.0527C446.148 40.0527 445.334 40.416 444.76 41.1426C444.191 41.8633 443.907 42.8857 443.907 44.21ZM452.494 39.4463H453.391L455.412 44.8076C456.027 46.4541 456.417 47.5645 456.581 48.1387H456.634C456.88 47.3828 457.281 46.2549 457.838 44.7549L459.859 39.4463H460.756L456.476 50.5469C456.13 51.4492 455.84 52.0586 455.605 52.375C455.371 52.6914 455.096 52.9287 454.779 53.0869C454.469 53.2451 454.091 53.3242 453.646 53.3242C453.312 53.3242 452.939 53.2627 452.529 53.1396V52.3838C452.869 52.4775 453.235 52.5244 453.628 52.5244C453.927 52.5244 454.19 52.4541 454.419 52.3135C454.647 52.1729 454.853 51.9531 455.034 51.6543C455.222 51.3613 455.436 50.8926 455.676 50.248C455.922 49.6094 456.08 49.1934 456.15 49L452.494 39.4463Z" fill="black"/>
<path d="M349.819 290.15H353.344C354.932 290.15 356.098 290.42 356.842 290.959C357.586 291.498 357.958 292.312 357.958 293.402C357.958 294.146 357.729 294.768 357.272 295.266C356.821 295.758 356.159 296.074 355.286 296.215V296.268C356.312 296.42 357.064 296.745 357.545 297.243C358.031 297.735 358.274 298.424 358.274 299.309C358.274 300.492 357.882 301.403 357.097 302.042C356.312 302.681 355.198 303 353.757 303H349.819V290.15ZM350.716 295.872H353.546C354.753 295.872 355.629 295.673 356.174 295.274C356.725 294.87 357 294.24 357 293.385C357 292.529 356.689 291.908 356.068 291.521C355.453 291.135 354.533 290.941 353.309 290.941H350.716V295.872ZM350.716 296.663V302.209H353.739C356.118 302.209 357.308 301.242 357.308 299.309C357.308 297.545 356.054 296.663 353.546 296.663H350.716ZM364.646 293.262C365.051 293.262 365.484 293.303 365.947 293.385L365.78 294.22C365.382 294.12 364.969 294.07 364.541 294.07C363.727 294.07 363.059 294.416 362.537 295.107C362.016 295.799 361.755 296.672 361.755 297.727V303H360.885V293.446H361.623L361.711 295.169H361.772C362.165 294.466 362.584 293.974 363.029 293.692C363.475 293.405 364.014 293.262 364.646 293.262ZM368.654 293.446V299.634C368.654 300.595 368.856 301.295 369.261 301.734C369.665 302.168 370.292 302.385 371.142 302.385C372.278 302.385 373.113 302.098 373.646 301.523C374.186 300.949 374.455 300.015 374.455 298.72V293.446H375.316V303H374.578L374.42 301.682H374.367C373.746 302.678 372.642 303.176 371.054 303.176C368.88 303.176 367.793 302.013 367.793 299.687V293.446H368.654ZM384.439 300.513C384.439 301.368 384.114 302.027 383.464 302.49C382.813 302.947 381.891 303.176 380.695 303.176C379.418 303.176 378.404 302.979 377.654 302.587V301.646C378.615 302.127 379.629 302.367 380.695 302.367C381.639 302.367 382.354 302.212 382.84 301.901C383.332 301.585 383.578 301.166 383.578 300.645C383.578 300.164 383.382 299.76 382.989 299.432C382.603 299.104 381.964 298.781 381.073 298.465C380.118 298.119 379.447 297.823 379.061 297.577C378.674 297.325 378.381 297.044 378.182 296.733C377.988 296.417 377.892 296.033 377.892 295.582C377.892 294.867 378.19 294.302 378.788 293.886C379.392 293.47 380.232 293.262 381.311 293.262C382.342 293.262 383.32 293.455 384.246 293.842L383.921 294.633C382.983 294.246 382.113 294.053 381.311 294.053C380.531 294.053 379.913 294.182 379.456 294.439C378.999 294.697 378.771 295.055 378.771 295.512C378.771 296.01 378.946 296.408 379.298 296.707C379.655 297.006 380.35 297.34 381.381 297.709C382.242 298.02 382.869 298.301 383.262 298.553C383.654 298.799 383.947 299.08 384.141 299.396C384.34 299.713 384.439 300.085 384.439 300.513ZM393.562 303V296.804C393.562 295.843 393.36 295.146 392.956 294.712C392.552 294.272 391.925 294.053 391.075 294.053C389.933 294.053 389.095 294.343 388.562 294.923C388.034 295.497 387.771 296.432 387.771 297.727V303H386.9V289.324H387.771V293.675L387.727 294.896H387.788C388.146 294.322 388.597 293.906 389.142 293.648C389.687 293.391 390.363 293.262 391.172 293.262C393.34 293.262 394.424 294.425 394.424 296.751V303H393.562ZM401.376 303.176C399.987 303.176 398.903 302.748 398.124 301.893C397.351 301.037 396.964 299.839 396.964 298.298C396.964 296.774 397.339 295.556 398.089 294.642C398.839 293.722 399.85 293.262 401.121 293.262C402.246 293.262 403.134 293.654 403.784 294.439C404.435 295.225 404.76 296.291 404.76 297.639V298.342H397.878C397.89 299.654 398.194 300.656 398.792 301.348C399.396 302.039 400.257 302.385 401.376 302.385C401.921 302.385 402.398 302.347 402.809 302.271C403.225 302.194 403.749 302.03 404.382 301.778V302.569C403.843 302.804 403.345 302.962 402.888 303.044C402.431 303.132 401.927 303.176 401.376 303.176ZM401.121 294.035C400.201 294.035 399.463 294.34 398.906 294.949C398.35 295.553 398.024 296.426 397.931 297.568H403.837C403.837 296.461 403.597 295.597 403.116 294.976C402.636 294.349 401.971 294.035 401.121 294.035ZM410.895 293.262C411.586 293.262 412.184 293.388 412.688 293.64C413.191 293.892 413.643 294.322 414.041 294.932H414.094C414.059 294.193 414.041 293.47 414.041 292.761V289.324H414.902V303H414.331L414.111 301.541H414.041C413.314 302.631 412.271 303.176 410.912 303.176C409.594 303.176 408.586 302.766 407.889 301.945C407.191 301.125 406.843 299.93 406.843 298.359C406.843 296.707 407.188 295.444 407.88 294.571C408.571 293.698 409.576 293.262 410.895 293.262ZM410.895 294.053C409.852 294.053 409.066 294.419 408.539 295.151C408.018 295.884 407.757 296.947 407.757 298.342C407.757 301.049 408.809 302.402 410.912 302.402C411.99 302.402 412.781 302.089 413.285 301.462C413.789 300.835 414.041 299.801 414.041 298.359V298.21C414.041 296.733 413.792 295.673 413.294 295.028C412.802 294.378 412.002 294.053 410.895 294.053ZM423.015 303V290.15H423.911V303H423.015ZM435.231 298.21C435.231 299.769 434.854 300.987 434.098 301.866C433.342 302.739 432.299 303.176 430.969 303.176C430.131 303.176 429.393 302.974 428.754 302.569C428.115 302.165 427.626 301.585 427.286 300.829C426.946 300.073 426.776 299.2 426.776 298.21C426.776 296.651 427.154 295.438 427.91 294.571C428.666 293.698 429.703 293.262 431.021 293.262C432.334 293.262 433.362 293.704 434.106 294.589C434.856 295.468 435.231 296.675 435.231 298.21ZM427.69 298.21C427.69 299.522 427.978 300.548 428.552 301.286C429.132 302.019 429.949 302.385 431.004 302.385C432.059 302.385 432.873 302.019 433.447 301.286C434.027 300.548 434.317 299.522 434.317 298.21C434.317 296.892 434.024 295.869 433.438 295.143C432.858 294.416 432.041 294.053 430.986 294.053C429.932 294.053 429.117 294.416 428.543 295.143C427.975 295.863 427.69 296.886 427.69 298.21ZM444.539 303V296.804C444.539 295.843 444.337 295.146 443.933 294.712C443.528 294.272 442.901 294.053 442.052 294.053C440.909 294.053 440.071 294.343 439.538 294.923C439.011 295.497 438.747 296.432 438.747 297.727V303H437.877V293.446H438.615L438.782 294.756H438.835C439.456 293.76 440.561 293.262 442.148 293.262C444.316 293.262 445.4 294.425 445.4 296.751V303H444.539ZM460.482 299.687C460.482 300.759 460.087 301.608 459.296 302.235C458.511 302.862 457.465 303.176 456.158 303.176C454.588 303.176 453.384 303.003 452.546 302.657V301.761C453.472 302.153 454.652 302.35 456.088 302.35C457.143 302.35 457.978 302.109 458.593 301.629C459.214 301.143 459.524 300.507 459.524 299.722C459.524 299.235 459.422 298.834 459.217 298.518C459.012 298.195 458.678 297.902 458.215 297.639C457.752 297.375 457.072 297.091 456.176 296.786C454.863 296.335 453.955 295.849 453.451 295.327C452.953 294.8 452.704 294.1 452.704 293.227C452.704 292.266 453.079 291.483 453.829 290.88C454.585 290.271 455.555 289.966 456.738 289.966C457.945 289.966 459.079 290.194 460.14 290.651L459.814 291.425C458.748 290.979 457.729 290.757 456.756 290.757C455.807 290.757 455.051 290.977 454.488 291.416C453.926 291.855 453.645 292.453 453.645 293.209C453.645 293.684 453.729 294.073 453.899 294.378C454.075 294.683 454.359 294.958 454.752 295.204C455.145 295.444 455.818 295.734 456.773 296.074C457.775 296.42 458.528 296.757 459.032 297.085C459.536 297.407 459.902 297.776 460.131 298.192C460.365 298.603 460.482 299.101 460.482 299.687ZM465.501 302.402C466.052 302.402 466.532 302.355 466.942 302.262V302.965C466.521 303.105 466.034 303.176 465.483 303.176C464.64 303.176 464.016 302.95 463.611 302.499C463.213 302.048 463.014 301.339 463.014 300.372V294.202H461.599V293.692L463.014 293.297L463.453 291.135H463.901V293.446H466.705V294.202H463.901V300.249C463.901 300.981 464.03 301.523 464.288 301.875C464.546 302.227 464.95 302.402 465.501 302.402ZM472.866 303.176C471.478 303.176 470.394 302.748 469.614 301.893C468.841 301.037 468.454 299.839 468.454 298.298C468.454 296.774 468.829 295.556 469.579 294.642C470.329 293.722 471.34 293.262 472.611 293.262C473.736 293.262 474.624 293.654 475.274 294.439C475.925 295.225 476.25 296.291 476.25 297.639V298.342H469.368C469.38 299.654 469.685 300.656 470.282 301.348C470.886 302.039 471.747 302.385 472.866 302.385C473.411 302.385 473.889 302.347 474.299 302.271C474.715 302.194 475.239 302.03 475.872 301.778V302.569C475.333 302.804 474.835 302.962 474.378 303.044C473.921 303.132 473.417 303.176 472.866 303.176ZM472.611 294.035C471.691 294.035 470.953 294.34 470.396 294.949C469.84 295.553 469.515 296.426 469.421 297.568H475.327C475.327 296.461 475.087 295.597 474.606 294.976C474.126 294.349 473.461 294.035 472.611 294.035ZM482.745 303.176C481.356 303.176 480.272 302.748 479.493 301.893C478.72 301.037 478.333 299.839 478.333 298.298C478.333 296.774 478.708 295.556 479.458 294.642C480.208 293.722 481.219 293.262 482.49 293.262C483.615 293.262 484.503 293.654 485.153 294.439C485.804 295.225 486.129 296.291 486.129 297.639V298.342H479.247C479.259 299.654 479.563 300.656 480.161 301.348C480.765 302.039 481.626 302.385 482.745 302.385C483.29 302.385 483.768 302.347 484.178 302.271C484.594 302.194 485.118 302.03 485.751 301.778V302.569C485.212 302.804 484.714 302.962 484.257 303.044C483.8 303.132 483.296 303.176 482.745 303.176ZM482.49 294.035C481.57 294.035 480.832 294.34 480.275 294.949C479.719 295.553 479.394 296.426 479.3 297.568H485.206C485.206 296.461 484.966 295.597 484.485 294.976C484.005 294.349 483.34 294.035 482.49 294.035ZM489.636 303H488.766V289.324H489.636V303ZM507.047 303H506.142V296.681H498.636V303H497.739V290.15H498.636V295.854H506.142V290.15H507.047V303ZM516.275 303L516.056 301.488H515.985C515.505 302.104 515.01 302.54 514.5 302.798C513.996 303.05 513.398 303.176 512.707 303.176C511.77 303.176 511.04 302.936 510.519 302.455C509.997 301.975 509.736 301.31 509.736 300.46C509.736 299.528 510.123 298.805 510.896 298.289C511.676 297.773 512.801 297.501 514.271 297.472L516.091 297.419V296.786C516.091 295.878 515.906 295.192 515.537 294.729C515.168 294.267 514.573 294.035 513.753 294.035C512.868 294.035 511.951 294.281 511.002 294.773L510.677 294.018C511.726 293.525 512.763 293.279 513.788 293.279C514.837 293.279 515.619 293.552 516.135 294.097C516.656 294.642 516.917 295.491 516.917 296.646V303H516.275ZM512.76 302.385C513.779 302.385 514.582 302.095 515.168 301.515C515.76 300.929 516.056 300.117 516.056 299.08V298.14L514.386 298.21C513.044 298.274 512.086 298.485 511.512 298.843C510.943 299.194 510.659 299.745 510.659 300.495C510.659 301.093 510.841 301.559 511.204 301.893C511.573 302.221 512.092 302.385 512.76 302.385ZM526.682 303V296.804C526.682 295.843 526.479 295.146 526.075 294.712C525.671 294.272 525.044 294.053 524.194 294.053C523.052 294.053 522.214 294.343 521.681 294.923C521.153 295.497 520.89 296.432 520.89 297.727V303H520.02V293.446H520.758L520.925 294.756H520.978C521.599 293.76 522.703 293.262 524.291 293.262C526.459 293.262 527.543 294.425 527.543 296.751V303H526.682ZM534.135 293.262C534.826 293.262 535.424 293.388 535.928 293.64C536.432 293.892 536.883 294.322 537.281 294.932H537.334C537.299 294.193 537.281 293.47 537.281 292.761V289.324H538.143V303H537.571L537.352 301.541H537.281C536.555 302.631 535.512 303.176 534.152 303.176C532.834 303.176 531.826 302.766 531.129 301.945C530.432 301.125 530.083 299.93 530.083 298.359C530.083 296.707 530.429 295.444 531.12 294.571C531.812 293.698 532.816 293.262 534.135 293.262ZM534.135 294.053C533.092 294.053 532.307 294.419 531.779 295.151C531.258 295.884 530.997 296.947 530.997 298.342C530.997 301.049 532.049 302.402 534.152 302.402C535.23 302.402 536.021 302.089 536.525 301.462C537.029 300.835 537.281 299.801 537.281 298.359V298.21C537.281 296.733 537.032 295.673 536.534 295.028C536.042 294.378 535.242 294.053 534.135 294.053ZM547.283 300.513C547.283 301.368 546.958 302.027 546.308 302.49C545.657 302.947 544.734 303.176 543.539 303.176C542.262 303.176 541.248 302.979 540.498 302.587V301.646C541.459 302.127 542.473 302.367 543.539 302.367C544.482 302.367 545.197 302.212 545.684 301.901C546.176 301.585 546.422 301.166 546.422 300.645C546.422 300.164 546.226 299.76 545.833 299.432C545.446 299.104 544.808 298.781 543.917 298.465C542.962 298.119 542.291 297.823 541.904 297.577C541.518 297.325 541.225 297.044 541.025 296.733C540.832 296.417 540.735 296.033 540.735 295.582C540.735 294.867 541.034 294.302 541.632 293.886C542.235 293.47 543.076 293.262 544.154 293.262C545.186 293.262 546.164 293.455 547.09 293.842L546.765 294.633C545.827 294.246 544.957 294.053 544.154 294.053C543.375 294.053 542.757 294.182 542.3 294.439C541.843 294.697 541.614 295.055 541.614 295.512C541.614 296.01 541.79 296.408 542.142 296.707C542.499 297.006 543.193 297.34 544.225 297.709C545.086 298.02 545.713 298.301 546.105 298.553C546.498 298.799 546.791 299.08 546.984 299.396C547.184 299.713 547.283 300.085 547.283 300.513ZM553.901 299.739C553.901 298.931 554.115 298.242 554.543 297.674C554.977 297.105 555.782 296.505 556.96 295.872L556.301 295.151C555.914 294.735 555.627 294.328 555.439 293.93C555.252 293.531 555.158 293.115 555.158 292.682C555.158 291.844 555.437 291.179 555.993 290.687C556.556 290.194 557.309 289.948 558.252 289.948C559.16 289.948 559.878 290.186 560.405 290.66C560.938 291.135 561.205 291.791 561.205 292.629C561.205 293.244 561 293.81 560.59 294.325C560.18 294.835 559.438 295.403 558.366 296.03L562.339 300.047C562.696 299.625 563.001 299.165 563.253 298.667C563.505 298.169 563.725 297.58 563.912 296.9H564.756C564.387 298.342 563.774 299.59 562.919 300.645L565.257 303H564.07L562.374 301.269C561.835 301.796 561.354 302.183 560.933 302.429C560.511 302.669 560.048 302.854 559.544 302.982C559.046 303.111 558.478 303.176 557.839 303.176C556.614 303.176 555.65 302.874 554.947 302.271C554.25 301.667 553.901 300.823 553.901 299.739ZM557.9 302.385C558.65 302.385 559.336 302.259 559.957 302.007C560.584 301.749 561.199 301.318 561.803 300.715L557.558 296.452C556.761 296.874 556.184 297.234 555.826 297.533C555.475 297.826 555.217 298.146 555.053 298.491C554.895 298.837 554.815 299.241 554.815 299.704C554.815 300.542 555.088 301.198 555.633 301.673C556.178 302.147 556.934 302.385 557.9 302.385ZM556.099 292.664C556.099 293.127 556.216 293.555 556.45 293.947C556.685 294.34 557.13 294.85 557.786 295.477C558.718 294.979 559.365 294.513 559.729 294.079C560.092 293.646 560.273 293.15 560.273 292.594C560.273 292.043 560.092 291.598 559.729 291.258C559.365 290.912 558.873 290.739 558.252 290.739C557.584 290.739 557.057 290.909 556.67 291.249C556.289 291.589 556.099 292.061 556.099 292.664ZM579.17 303H572.147V290.15H579.17V290.977H573.044V295.837H578.827V296.663H573.044V302.174H579.17V303ZM593.795 303V296.733C593.795 295.802 593.613 295.122 593.25 294.694C592.887 294.267 592.33 294.053 591.58 294.053C590.602 294.053 589.878 294.322 589.409 294.861C588.94 295.4 588.706 296.247 588.706 297.401V303H587.818V296.47C587.818 294.858 587.08 294.053 585.604 294.053C584.602 294.053 583.872 294.346 583.415 294.932C582.958 295.512 582.729 296.443 582.729 297.727V303H581.859V293.446H582.58L582.765 294.756H582.817C583.081 294.281 583.456 293.915 583.942 293.657C584.429 293.394 584.965 293.262 585.551 293.262C587.057 293.262 588.023 293.827 588.451 294.958H588.486C588.797 294.413 589.213 293.994 589.734 293.701C590.262 293.408 590.859 293.262 591.527 293.262C592.57 293.262 593.353 293.54 593.874 294.097C594.396 294.653 594.656 295.538 594.656 296.751V303H593.795ZM601.784 293.262C603.12 293.262 604.125 293.684 604.799 294.527C605.479 295.365 605.818 296.593 605.818 298.21C605.818 299.798 605.461 301.022 604.746 301.884C604.037 302.745 603.038 303.176 601.749 303.176C601.069 303.176 600.457 303.035 599.912 302.754C599.367 302.473 598.937 302.074 598.62 301.559H598.541L598.295 303H597.75V289.324H598.62V292.761C598.62 293.276 598.608 293.751 598.585 294.185L598.559 294.932H598.62C598.983 294.357 599.42 293.936 599.93 293.666C600.445 293.396 601.063 293.262 601.784 293.262ZM601.767 294.053C600.642 294.053 599.836 294.375 599.35 295.02C598.863 295.664 598.62 296.728 598.62 298.21V298.359C598.62 299.801 598.872 300.835 599.376 301.462C599.886 302.089 600.677 302.402 601.749 302.402C602.792 302.402 603.577 302.039 604.104 301.312C604.632 300.58 604.896 299.54 604.896 298.192C604.896 295.433 603.853 294.053 601.767 294.053ZM616.374 298.21C616.374 299.769 615.996 300.987 615.24 301.866C614.484 302.739 613.441 303.176 612.111 303.176C611.273 303.176 610.535 302.974 609.896 302.569C609.258 302.165 608.769 301.585 608.429 300.829C608.089 300.073 607.919 299.2 607.919 298.21C607.919 296.651 608.297 295.438 609.053 294.571C609.809 293.698 610.846 293.262 612.164 293.262C613.477 293.262 614.505 293.704 615.249 294.589C615.999 295.468 616.374 296.675 616.374 298.21ZM608.833 298.21C608.833 299.522 609.12 300.548 609.694 301.286C610.274 302.019 611.092 302.385 612.146 302.385C613.201 302.385 614.016 302.019 614.59 301.286C615.17 300.548 615.46 299.522 615.46 298.21C615.46 296.892 615.167 295.869 614.581 295.143C614.001 294.416 613.184 294.053 612.129 294.053C611.074 294.053 610.26 294.416 609.686 295.143C609.117 295.863 608.833 296.886 608.833 298.21ZM624.943 300.513C624.943 301.368 624.618 302.027 623.968 302.49C623.317 302.947 622.395 303.176 621.199 303.176C619.922 303.176 618.908 302.979 618.158 302.587V301.646C619.119 302.127 620.133 302.367 621.199 302.367C622.143 302.367 622.857 302.212 623.344 301.901C623.836 301.585 624.082 301.166 624.082 300.645C624.082 300.164 623.886 299.76 623.493 299.432C623.106 299.104 622.468 298.781 621.577 298.465C620.622 298.119 619.951 297.823 619.564 297.577C619.178 297.325 618.885 297.044 618.686 296.733C618.492 296.417 618.396 296.033 618.396 295.582C618.396 294.867 618.694 294.302 619.292 293.886C619.896 293.47 620.736 293.262 621.814 293.262C622.846 293.262 623.824 293.455 624.75 293.842L624.425 294.633C623.487 294.246 622.617 294.053 621.814 294.053C621.035 294.053 620.417 294.182 619.96 294.439C619.503 294.697 619.274 295.055 619.274 295.512C619.274 296.01 619.45 296.408 619.802 296.707C620.159 297.006 620.854 297.34 621.885 297.709C622.746 298.02 623.373 298.301 623.766 298.553C624.158 298.799 624.451 299.08 624.645 299.396C624.844 299.713 624.943 300.085 624.943 300.513ZM633.328 300.513C633.328 301.368 633.003 302.027 632.353 302.49C631.702 302.947 630.779 303.176 629.584 303.176C628.307 303.176 627.293 302.979 626.543 302.587V301.646C627.504 302.127 628.518 302.367 629.584 302.367C630.527 302.367 631.242 302.212 631.729 301.901C632.221 301.585 632.467 301.166 632.467 300.645C632.467 300.164 632.271 299.76 631.878 299.432C631.491 299.104 630.853 298.781 629.962 298.465C629.007 298.119 628.336 297.823 627.949 297.577C627.562 297.325 627.27 297.044 627.07 296.733C626.877 296.417 626.78 296.033 626.78 295.582C626.78 294.867 627.079 294.302 627.677 293.886C628.28 293.47 629.121 293.262 630.199 293.262C631.23 293.262 632.209 293.455 633.135 293.842L632.81 294.633C631.872 294.246 631.002 294.053 630.199 294.053C629.42 294.053 628.802 294.182 628.345 294.439C627.888 294.697 627.659 295.055 627.659 295.512C627.659 296.01 627.835 296.408 628.187 296.707C628.544 297.006 629.238 297.34 630.27 297.709C631.131 298.02 631.758 298.301 632.15 298.553C632.543 298.799 632.836 299.08 633.029 299.396C633.229 299.713 633.328 300.085 633.328 300.513ZM639.647 303.176C638.259 303.176 637.175 302.748 636.396 301.893C635.622 301.037 635.235 299.839 635.235 298.298C635.235 296.774 635.61 295.556 636.36 294.642C637.11 293.722 638.121 293.262 639.393 293.262C640.518 293.262 641.405 293.654 642.056 294.439C642.706 295.225 643.031 296.291 643.031 297.639V298.342H636.149C636.161 299.654 636.466 300.656 637.063 301.348C637.667 302.039 638.528 302.385 639.647 302.385C640.192 302.385 640.67 302.347 641.08 302.271C641.496 302.194 642.021 302.03 642.653 301.778V302.569C642.114 302.804 641.616 302.962 641.159 303.044C640.702 303.132 640.198 303.176 639.647 303.176ZM639.393 294.035C638.473 294.035 637.734 294.34 637.178 294.949C636.621 295.553 636.296 296.426 636.202 297.568H642.108C642.108 296.461 641.868 295.597 641.388 294.976C640.907 294.349 640.242 294.035 639.393 294.035ZM649.166 293.262C649.857 293.262 650.455 293.388 650.959 293.64C651.463 293.892 651.914 294.322 652.312 294.932H652.365C652.33 294.193 652.312 293.47 652.312 292.761V289.324H653.174V303H652.603L652.383 301.541H652.312C651.586 302.631 650.543 303.176 649.184 303.176C647.865 303.176 646.857 302.766 646.16 301.945C645.463 301.125 645.114 299.93 645.114 298.359C645.114 296.707 645.46 295.444 646.151 294.571C646.843 293.698 647.848 293.262 649.166 293.262ZM649.166 294.053C648.123 294.053 647.338 294.419 646.811 295.151C646.289 295.884 646.028 296.947 646.028 298.342C646.028 301.049 647.08 302.402 649.184 302.402C650.262 302.402 651.053 302.089 651.557 301.462C652.061 300.835 652.312 299.801 652.312 298.359V298.21C652.312 296.733 652.063 295.673 651.565 295.028C651.073 294.378 650.273 294.053 649.166 294.053ZM355.471 328L350.681 316.135H350.61C350.657 316.861 350.681 317.605 350.681 318.367V328H349.819V315.15H351.208L355.761 326.453H355.813L360.366 315.15H361.72V328H360.814V318.262C360.814 317.582 360.85 316.879 360.92 316.152H360.85L356.042 328H355.471ZM370.939 328L370.72 326.488H370.649C370.169 327.104 369.674 327.54 369.164 327.798C368.66 328.05 368.062 328.176 367.371 328.176C366.434 328.176 365.704 327.936 365.183 327.455C364.661 326.975 364.4 326.31 364.4 325.46C364.4 324.528 364.787 323.805 365.561 323.289C366.34 322.773 367.465 322.501 368.936 322.472L370.755 322.419V321.786C370.755 320.878 370.57 320.192 370.201 319.729C369.832 319.267 369.237 319.035 368.417 319.035C367.532 319.035 366.615 319.281 365.666 319.773L365.341 319.018C366.39 318.525 367.427 318.279 368.452 318.279C369.501 318.279 370.283 318.552 370.799 319.097C371.32 319.642 371.581 320.491 371.581 321.646V328H370.939ZM367.424 327.385C368.443 327.385 369.246 327.095 369.832 326.515C370.424 325.929 370.72 325.117 370.72 324.08V323.14L369.05 323.21C367.708 323.274 366.75 323.485 366.176 323.843C365.607 324.194 365.323 324.745 365.323 325.495C365.323 326.093 365.505 326.559 365.868 326.893C366.237 327.221 366.756 327.385 367.424 327.385ZM378.445 318.262C378.85 318.262 379.283 318.303 379.746 318.385L379.579 319.22C379.181 319.12 378.768 319.07 378.34 319.07C377.525 319.07 376.857 319.416 376.336 320.107C375.814 320.799 375.554 321.672 375.554 322.727V328H374.684V318.446H375.422L375.51 320.169H375.571C375.964 319.466 376.383 318.974 376.828 318.692C377.273 318.405 377.812 318.262 378.445 318.262ZM382.55 323.808L387.428 318.446H388.482L384.721 322.524L388.808 328H387.762L384.132 323.175L382.567 324.599V328H381.697V314.324H382.567V321.18L382.506 323.808H382.55ZM394.274 328.176C392.886 328.176 391.802 327.748 391.022 326.893C390.249 326.037 389.862 324.839 389.862 323.298C389.862 321.774 390.237 320.556 390.987 319.642C391.737 318.722 392.748 318.262 394.02 318.262C395.145 318.262 396.032 318.654 396.683 319.439C397.333 320.225 397.658 321.291 397.658 322.639V323.342H390.776C390.788 324.654 391.093 325.656 391.69 326.348C392.294 327.039 393.155 327.385 394.274 327.385C394.819 327.385 395.297 327.347 395.707 327.271C396.123 327.194 396.647 327.03 397.28 326.778V327.569C396.741 327.804 396.243 327.962 395.786 328.044C395.329 328.132 394.825 328.176 394.274 328.176ZM394.02 319.035C393.1 319.035 392.361 319.34 391.805 319.949C391.248 320.553 390.923 321.426 390.829 322.568H396.735C396.735 321.461 396.495 320.597 396.015 319.976C395.534 319.349 394.869 319.035 394.02 319.035ZM404.057 318.262C404.461 318.262 404.895 318.303 405.357 318.385L405.19 319.22C404.792 319.12 404.379 319.07 403.951 319.07C403.137 319.07 402.469 319.416 401.947 320.107C401.426 320.799 401.165 321.672 401.165 322.727V328H400.295V318.446H401.033L401.121 320.169H401.183C401.575 319.466 401.994 318.974 402.439 318.692C402.885 318.405 403.424 318.262 404.057 318.262ZM413.232 325.513C413.232 326.368 412.907 327.027 412.257 327.49C411.606 327.947 410.684 328.176 409.488 328.176C408.211 328.176 407.197 327.979 406.447 327.587V326.646C407.408 327.127 408.422 327.367 409.488 327.367C410.432 327.367 411.146 327.212 411.633 326.901C412.125 326.585 412.371 326.166 412.371 325.645C412.371 325.164 412.175 324.76 411.782 324.432C411.396 324.104 410.757 323.781 409.866 323.465C408.911 323.119 408.24 322.823 407.854 322.577C407.467 322.325 407.174 322.044 406.975 321.733C406.781 321.417 406.685 321.033 406.685 320.582C406.685 319.867 406.983 319.302 407.581 318.886C408.185 318.47 409.025 318.262 410.104 318.262C411.135 318.262 412.113 318.455 413.039 318.842L412.714 319.633C411.776 319.246 410.906 319.053 410.104 319.053C409.324 319.053 408.706 319.182 408.249 319.439C407.792 319.697 407.563 320.055 407.563 320.512C407.563 321.01 407.739 321.408 408.091 321.707C408.448 322.006 409.143 322.34 410.174 322.709C411.035 323.02 411.662 323.301 412.055 323.553C412.447 323.799 412.74 324.08 412.934 324.396C413.133 324.713 413.232 325.085 413.232 325.513Z" fill="black"/>
</g>
<defs>
<clipPath id="clip0">
<rect width="695" height="350" fill="white"/>
</clipPath>
</defs>
</svg>
