<svg width="695" height="36" viewBox="0 0 695 36" fill="none" xmlns="http://www.w3.org/2000/svg">
<g clip-path="url(#clip0)">
<path d="M75.3679 23.1923H74.5123V17.3455C74.5123 16.6586 74.2396 15.9988 73.7583 15.512L68.4163 10.1088C67.935 9.62199 67.2826 9.34615 66.6035 9.34615H64.2453V6.74999C64.2453 5.3167 63.0956 4.15384 61.6785 4.15384H44.5668C43.1497 4.15384 42 5.3167 42 6.74999V24.0577C42 25.491 43.1497 26.6538 44.5668 26.6538H45.4223C45.4223 29.5204 47.7217 31.8461 50.5559 31.8461C53.39 31.8461 55.6894 29.5204 55.6894 26.6538H62.5341C62.5341 29.5204 64.8335 31.8461 67.6676 31.8461C70.5017 31.8461 72.8011 29.5204 72.8011 26.6538H75.3679C75.8385 26.6538 76.2235 26.2644 76.2235 25.7885V24.0577C76.2235 23.5817 75.8385 23.1923 75.3679 23.1923ZM50.5559 29.25C49.1388 29.25 47.9891 28.0871 47.9891 26.6538C47.9891 25.2205 49.1388 24.0577 50.5559 24.0577C51.9729 24.0577 53.1226 25.2205 53.1226 26.6538C53.1226 28.0871 51.9729 29.25 50.5559 29.25ZM67.6676 29.25C66.2505 29.25 65.1009 28.0871 65.1009 26.6538C65.1009 25.2205 66.2505 24.0577 67.6676 24.0577C69.0847 24.0577 70.2344 25.2205 70.2344 26.6538C70.2344 28.0871 69.0847 29.25 67.6676 29.25ZM71.9455 18H64.2453V11.9423H66.6035L71.9455 17.3455V18Z" fill="black"/>
</g>
<path d="M98.0221 10.5538H103.26V12.3538H100.002V15.8638H102.558V17.6638H100.002V23.1538H98.0221V10.5538ZM104.21 10.5538H107.144C108.164 10.5538 108.908 10.7938 109.376 11.2738C109.844 11.7418 110.078 12.4678 110.078 13.4518V14.2258C110.078 15.5338 109.646 16.3618 108.782 16.7098V16.7458C109.262 16.8898 109.598 17.1838 109.79 17.6278C109.994 18.0718 110.096 18.6658 110.096 19.4098V21.6238C110.096 21.9838 110.108 22.2778 110.132 22.5058C110.156 22.7218 110.216 22.9378 110.312 23.1538H108.296C108.224 22.9498 108.176 22.7578 108.152 22.5778C108.128 22.3978 108.116 22.0738 108.116 21.6058V19.3018C108.116 18.7258 108.02 18.3238 107.828 18.0958C107.648 17.8678 107.33 17.7538 106.874 17.7538H106.19V23.1538H104.21V10.5538ZM106.91 15.9538C107.306 15.9538 107.6 15.8518 107.792 15.6478C107.996 15.4438 108.098 15.1018 108.098 14.6218V13.6498C108.098 13.1938 108.014 12.8638 107.846 12.6598C107.69 12.4558 107.438 12.3538 107.09 12.3538H106.19V15.9538H106.91ZM111.469 10.5538H116.869V12.3538H113.449V15.6838H116.167V17.4838H113.449V21.3538H116.869V23.1538H111.469V10.5538ZM118.008 10.5538H123.408V12.3538H119.988V15.6838H122.706V17.4838H119.988V21.3538H123.408V23.1538H118.008V10.5538ZM127.43 10.5538H130.364C131.384 10.5538 132.128 10.7938 132.596 11.2738C133.064 11.7418 133.298 12.4678 133.298 13.4518V14.2258C133.298 15.5338 132.866 16.3618 132.002 16.7098V16.7458C132.482 16.8898 132.818 17.1838 133.01 17.6278C133.214 18.0718 133.316 18.6658 133.316 19.4098V21.6238C133.316 21.9838 133.328 22.2778 133.352 22.5058C133.376 22.7218 133.436 22.9378 133.532 23.1538H131.516C131.444 22.9498 131.396 22.7578 131.372 22.5778C131.348 22.3978 131.336 22.0738 131.336 21.6058V19.3018C131.336 18.7258 131.24 18.3238 131.048 18.0958C130.868 17.8678 130.55 17.7538 130.094 17.7538H129.41V23.1538H127.43V10.5538ZM130.13 15.9538C130.526 15.9538 130.82 15.8518 131.012 15.6478C131.216 15.4438 131.318 15.1018 131.318 14.6218V13.6498C131.318 13.1938 131.234 12.8638 131.066 12.6598C130.91 12.4558 130.658 12.3538 130.31 12.3538H129.41V15.9538H130.13ZM134.69 10.5538H140.09V12.3538H136.67V15.6838H139.388V17.4838H136.67V21.3538H140.09V23.1538H134.69V10.5538ZM142.777 12.3538H140.707V10.5538H146.827V12.3538H144.757V23.1538H142.777V12.3538ZM150.666 23.3338C149.706 23.3338 148.974 23.0638 148.47 22.5238C147.966 21.9718 147.714 21.1858 147.714 20.1658V10.5538H149.694V20.3098C149.694 20.7418 149.778 21.0538 149.946 21.2458C150.126 21.4378 150.378 21.5338 150.702 21.5338C151.026 21.5338 151.272 21.4378 151.44 21.2458C151.62 21.0538 151.71 20.7418 151.71 20.3098V10.5538H153.618V20.1658C153.618 21.1858 153.366 21.9718 152.862 22.5238C152.358 23.0638 151.626 23.3338 150.666 23.3338ZM155.028 10.5538H157.962C158.982 10.5538 159.726 10.7938 160.194 11.2738C160.662 11.7418 160.896 12.4678 160.896 13.4518V14.2258C160.896 15.5338 160.464 16.3618 159.6 16.7098V16.7458C160.08 16.8898 160.416 17.1838 160.608 17.6278C160.812 18.0718 160.914 18.6658 160.914 19.4098V21.6238C160.914 21.9838 160.926 22.2778 160.95 22.5058C160.974 22.7218 161.034 22.9378 161.13 23.1538H159.114C159.042 22.9498 158.994 22.7578 158.97 22.5778C158.946 22.3978 158.934 22.0738 158.934 21.6058V19.3018C158.934 18.7258 158.838 18.3238 158.646 18.0958C158.466 17.8678 158.148 17.7538 157.692 17.7538H157.008V23.1538H155.028V10.5538ZM157.728 15.9538C158.124 15.9538 158.418 15.8518 158.61 15.6478C158.814 15.4438 158.916 15.1018 158.916 14.6218V13.6498C158.916 13.1938 158.832 12.8638 158.664 12.6598C158.508 12.4558 158.256 12.3538 157.908 12.3538H157.008V15.9538H157.728ZM162.288 10.5538H164.772L166.698 18.0958H166.734V10.5538H168.498V23.1538H166.464L164.088 13.9558H164.052V23.1538H162.288V10.5538ZM172.543 23.3338C171.583 23.3338 170.857 23.0638 170.365 22.5238C169.873 21.9718 169.627 21.1858 169.627 20.1658V19.4458H171.499V20.3098C171.499 21.1258 171.841 21.5338 172.525 21.5338C172.861 21.5338 173.113 21.4378 173.281 21.2458C173.461 21.0418 173.551 20.7178 173.551 20.2738C173.551 19.7458 173.431 19.2838 173.191 18.8878C172.951 18.4798 172.507 17.9938 171.859 17.4298C171.043 16.7098 170.473 16.0618 170.149 15.4858C169.825 14.8978 169.663 14.2378 169.663 13.5058C169.663 12.5098 169.915 11.7418 170.419 11.2018C170.923 10.6498 171.655 10.3738 172.615 10.3738C173.563 10.3738 174.277 10.6498 174.757 11.2018C175.249 11.7418 175.495 12.5218 175.495 13.5418V14.0638H173.623V13.4158C173.623 12.9838 173.539 12.6718 173.371 12.4798C173.203 12.2758 172.957 12.1738 172.633 12.1738C171.973 12.1738 171.643 12.5758 171.643 13.3798C171.643 13.8358 171.763 14.2618 172.003 14.6578C172.255 15.0538 172.705 15.5338 173.353 16.0978C174.181 16.8178 174.751 17.4718 175.063 18.0598C175.375 18.6478 175.531 19.3378 175.531 20.1298C175.531 21.1618 175.273 21.9538 174.757 22.5058C174.253 23.0578 173.515 23.3338 172.543 23.3338Z" fill="black"/>
<g clip-path="url(#clip1)">
<path d="M506.564 23.7416C506.066 23.2612 506.326 23.3966 505.125 23.0865C504.58 22.9455 504.101 22.6746 503.668 22.35L501.069 28.5002C500.817 29.0957 501.287 29.7425 501.953 29.7182L504.972 29.6071L507.048 31.7235C507.506 32.1901 508.31 32.0447 508.562 31.4492L511.544 24.3935C510.923 24.7274 510.234 24.9231 509.521 24.9231C508.404 24.9231 507.354 24.5035 506.564 23.7416ZM522.931 28.5002L520.332 22.35C519.899 22.6751 519.42 22.9455 518.875 23.0865C517.668 23.3983 517.932 23.2623 517.436 23.7416C516.646 24.5035 515.596 24.9231 514.478 24.9231C513.766 24.9231 513.076 24.7268 512.455 24.3935L515.437 31.4492C515.689 32.0447 516.494 32.1901 516.952 31.7235L519.028 29.6071L522.047 29.7182C522.713 29.7425 523.183 29.0951 522.931 28.5002ZM516.068 22.4905C516.943 21.6308 517.043 21.7048 518.29 21.377C519.086 21.1674 519.708 20.5565 519.921 19.7748C520.35 18.2046 520.238 18.3942 521.408 17.2454C521.99 16.6731 522.218 15.8388 522.005 15.0571C521.577 13.488 521.576 13.707 522.005 12.1363C522.218 11.3545 521.99 10.5202 521.408 9.94798C520.238 8.79911 520.35 8.98819 519.921 7.41858C519.708 6.63682 519.086 6.02589 518.29 5.81636C516.693 5.39562 516.885 5.50564 515.715 4.35622C515.132 3.78399 514.282 3.56008 513.487 3.76962C511.89 4.1898 512.113 4.19035 510.513 3.76962C509.718 3.56008 508.868 3.78344 508.285 4.35622C507.116 5.50509 507.308 5.39562 505.711 5.81636C504.915 6.02589 504.293 6.63682 504.08 7.41858C503.652 8.98819 503.762 8.79911 502.593 9.94798C502.01 10.5202 501.782 11.3545 501.996 12.1363C502.424 13.7042 502.424 13.4853 501.996 15.0565C501.783 15.8383 502.01 16.6726 502.593 17.2454C503.762 18.3942 503.651 18.2046 504.08 19.7748C504.293 20.5565 504.915 21.1674 505.711 21.377C506.993 21.7142 507.088 21.6612 507.932 22.4905C508.69 23.2352 509.871 23.3684 510.782 22.8122C511.146 22.5891 511.569 22.4706 512 22.4706C512.432 22.4706 512.854 22.5891 513.219 22.8122C514.129 23.3684 515.31 23.2352 516.068 22.4905ZM506.595 13.4211C506.595 10.4892 509.015 8.11244 512 8.11244C514.985 8.11244 517.405 10.4892 517.405 13.4211C517.405 16.353 514.985 18.7298 512 18.7298C509.015 18.7298 506.595 16.353 506.595 13.4211Z" fill="black"/>
</g>
<path d="M550.51 13.388H548.44V11.984C549.004 11.984 549.454 11.936 549.79 11.84C550.138 11.744 550.414 11.588 550.618 11.372C550.822 11.144 551.002 10.82 551.158 10.4H552.49V23H550.51V13.388ZM559.646 17.636L557.252 10.4H559.358L560.708 15.026H560.744L562.094 10.4H564.02L561.626 17.636V23H559.646V17.636ZM564.912 10.4H570.312V12.2H566.892V15.53H569.61V17.33H566.892V21.2H570.312V23H564.912V10.4ZM572.981 10.4H575.663L577.715 23H575.735L575.375 20.498V20.534H573.125L572.765 23H570.929L572.981 10.4ZM575.141 18.824L574.259 12.596H574.223L573.359 18.824H575.141ZM578.676 10.4H581.61C582.63 10.4 583.374 10.64 583.842 11.12C584.31 11.588 584.544 12.314 584.544 13.298V14.072C584.544 15.38 584.112 16.208 583.248 16.556V16.592C583.728 16.736 584.064 17.03 584.256 17.474C584.46 17.918 584.562 18.512 584.562 19.256V21.47C584.562 21.83 584.574 22.124 584.598 22.352C584.622 22.568 584.682 22.784 584.778 23H582.762C582.69 22.796 582.642 22.604 582.618 22.424C582.594 22.244 582.582 21.92 582.582 21.452V19.148C582.582 18.572 582.486 18.17 582.294 17.942C582.114 17.714 581.796 17.6 581.34 17.6H580.656V23H578.676V10.4ZM581.376 15.8C581.772 15.8 582.066 15.698 582.258 15.494C582.462 15.29 582.563 14.948 582.563 14.468V13.496C582.563 13.04 582.48 12.71 582.312 12.506C582.156 12.302 581.904 12.2 581.556 12.2H580.656V15.8H581.376ZM588.35 10.4H590.258L591.14 20.084H591.176L592.112 10.4H594.272L595.208 20.084H595.244L596.126 10.4H597.836L596.558 23H594.092L593.192 14.504H593.156L592.256 23H589.628L588.35 10.4ZM600.122 10.4H602.804L604.856 23H602.876L602.516 20.498V20.534H600.266L599.906 23H598.07L600.122 10.4ZM602.282 18.824L601.4 12.596H601.364L600.5 18.824H602.282ZM605.816 10.4H608.75C609.77 10.4 610.514 10.64 610.982 11.12C611.45 11.588 611.684 12.314 611.684 13.298V14.072C611.684 15.38 611.252 16.208 610.388 16.556V16.592C610.868 16.736 611.204 17.03 611.396 17.474C611.6 17.918 611.702 18.512 611.702 19.256V21.47C611.702 21.83 611.714 22.124 611.738 22.352C611.762 22.568 611.822 22.784 611.918 23H609.902C609.83 22.796 609.782 22.604 609.758 22.424C609.734 22.244 609.722 21.92 609.722 21.452V19.148C609.722 18.572 609.626 18.17 609.434 17.942C609.254 17.714 608.936 17.6 608.48 17.6H607.796V23H605.816V10.4ZM608.516 15.8C608.912 15.8 609.206 15.698 609.398 15.494C609.602 15.29 609.704 14.948 609.704 14.468V13.496C609.704 13.04 609.62 12.71 609.452 12.506C609.296 12.302 609.044 12.2 608.696 12.2H607.796V15.8H608.516ZM613.076 10.4H616.01C617.03 10.4 617.774 10.64 618.242 11.12C618.71 11.588 618.944 12.314 618.944 13.298V14.072C618.944 15.38 618.512 16.208 617.648 16.556V16.592C618.128 16.736 618.464 17.03 618.656 17.474C618.86 17.918 618.962 18.512 618.962 19.256V21.47C618.962 21.83 618.974 22.124 618.998 22.352C619.022 22.568 619.082 22.784 619.178 23H617.162C617.09 22.796 617.042 22.604 617.018 22.424C616.994 22.244 616.982 21.92 616.982 21.452V19.148C616.982 18.572 616.886 18.17 616.694 17.942C616.514 17.714 616.196 17.6 615.74 17.6H615.056V23H613.076V10.4ZM615.776 15.8C616.172 15.8 616.466 15.698 616.658 15.494C616.862 15.29 616.964 14.948 616.964 14.468V13.496C616.964 13.04 616.88 12.71 616.712 12.506C616.556 12.302 616.304 12.2 615.956 12.2H615.056V15.8H615.776ZM621.866 10.4H624.548L626.6 23H624.62L624.26 20.498V20.534H622.01L621.65 23H619.814L621.866 10.4ZM624.026 18.824L623.144 12.596H623.108L622.244 18.824H624.026ZM627.56 10.4H630.044L631.97 17.942H632.006V10.4H633.77V23H631.736L629.36 13.802H629.324V23H627.56V10.4ZM636.79 12.2H634.72V10.4H640.84V12.2H638.77V23H636.79V12.2ZM643.687 17.636L641.293 10.4H643.399L644.749 15.026H644.785L646.135 10.4H648.061L645.667 17.636V23H643.687V17.636Z" fill="black"/>
<g clip-path="url(#clip2)">
<path d="M289.023 14.5385H282.233L275.988 4.58978C275.905 4.45732 275.784 4.34725 275.639 4.27069C275.494 4.19414 275.33 4.15383 275.162 4.15384L271.27 4.15384C270.639 4.15384 270.183 4.7039 270.357 5.25666L273.27 14.5385H267.158L264.591 11.4231C264.412 11.2051 264.13 11.0769 263.831 11.0769H261.455C260.836 11.0769 260.382 11.6059 260.533 12.1522L262.405 18L260.533 23.8478C260.382 24.3941 260.836 24.9231 261.455 24.9231H263.831C264.13 24.9231 264.412 24.7949 264.591 24.5769L267.158 21.4615H273.27L270.357 30.7428C270.183 31.2955 270.639 31.8461 271.27 31.8461H275.162C275.503 31.8461 275.818 31.6796 275.987 31.4102L282.233 21.4615H289.023C291.124 21.4615 294.727 19.912 294.727 18C294.727 16.088 291.124 14.5385 289.023 14.5385Z" fill="black"/>
</g>
<path d="M316.526 10.5538H321.764V12.3538H318.506V15.8638H321.062V17.6638H318.506V23.1538H316.526V10.5538ZM322.713 10.5538H325.647C326.667 10.5538 327.411 10.7938 327.879 11.2738C328.347 11.7418 328.581 12.4678 328.581 13.4518V14.2258C328.581 15.5338 328.149 16.3618 327.285 16.7098V16.7458C327.765 16.8898 328.101 17.1838 328.293 17.6278C328.497 18.0718 328.599 18.6658 328.599 19.4098V21.6238C328.599 21.9838 328.611 22.2778 328.635 22.5058C328.659 22.7218 328.719 22.9378 328.815 23.1538H326.799C326.727 22.9498 326.679 22.7578 326.655 22.5778C326.631 22.3978 326.619 22.0738 326.619 21.6058V19.3018C326.619 18.7258 326.523 18.3238 326.331 18.0958C326.151 17.8678 325.833 17.7538 325.377 17.7538H324.693V23.1538H322.713V10.5538ZM325.413 15.9538C325.809 15.9538 326.103 15.8518 326.295 15.6478C326.499 15.4438 326.601 15.1018 326.601 14.6218V13.6498C326.601 13.1938 326.517 12.8638 326.349 12.6598C326.193 12.4558 325.941 12.3538 325.593 12.3538H324.693V15.9538H325.413ZM329.973 10.5538H335.373V12.3538H331.953V15.6838H334.671V17.4838H331.953V21.3538H335.373V23.1538H329.973V10.5538ZM336.512 10.5538H341.912V12.3538H338.492V15.6838H341.21V17.4838H338.492V21.3538H341.912V23.1538H336.512V10.5538ZM348.814 23.3338C347.854 23.3338 347.122 23.0638 346.618 22.5238C346.114 21.9718 345.862 21.1858 345.862 20.1658V10.5538H347.842V20.3098C347.842 20.7418 347.926 21.0538 348.094 21.2458C348.274 21.4378 348.526 21.5338 348.85 21.5338C349.174 21.5338 349.42 21.4378 349.588 21.2458C349.768 21.0538 349.858 20.7418 349.858 20.3098V10.5538H351.766V20.1658C351.766 21.1858 351.514 21.9718 351.01 22.5238C350.506 23.0638 349.774 23.3338 348.814 23.3338ZM355.75 23.3338C354.79 23.3338 354.064 23.0638 353.572 22.5238C353.08 21.9718 352.834 21.1858 352.834 20.1658V19.4458H354.706V20.3098C354.706 21.1258 355.048 21.5338 355.732 21.5338C356.068 21.5338 356.32 21.4378 356.488 21.2458C356.668 21.0418 356.758 20.7178 356.758 20.2738C356.758 19.7458 356.638 19.2838 356.398 18.8878C356.158 18.4798 355.714 17.9938 355.066 17.4298C354.25 16.7098 353.68 16.0618 353.356 15.4858C353.032 14.8978 352.87 14.2378 352.87 13.5058C352.87 12.5098 353.122 11.7418 353.626 11.2018C354.13 10.6498 354.862 10.3738 355.822 10.3738C356.77 10.3738 357.484 10.6498 357.964 11.2018C358.456 11.7418 358.702 12.5218 358.702 13.5418V14.0638H356.83V13.4158C356.83 12.9838 356.746 12.6718 356.578 12.4798C356.41 12.2758 356.164 12.1738 355.84 12.1738C355.18 12.1738 354.85 12.5758 354.85 13.3798C354.85 13.8358 354.97 14.2618 355.21 14.6578C355.462 15.0538 355.912 15.5338 356.56 16.0978C357.388 16.8178 357.958 17.4718 358.27 18.0598C358.582 18.6478 358.738 19.3378 358.738 20.1298C358.738 21.1618 358.48 21.9538 357.964 22.5058C357.46 23.0578 356.722 23.3338 355.75 23.3338ZM365.33 23.3338C364.37 23.3338 363.644 23.0638 363.152 22.5238C362.66 21.9718 362.414 21.1858 362.414 20.1658V19.4458H364.286V20.3098C364.286 21.1258 364.628 21.5338 365.312 21.5338C365.648 21.5338 365.9 21.4378 366.068 21.2458C366.248 21.0418 366.338 20.7178 366.338 20.2738C366.338 19.7458 366.218 19.2838 365.978 18.8878C365.738 18.4798 365.294 17.9938 364.646 17.4298C363.83 16.7098 363.26 16.0618 362.936 15.4858C362.612 14.8978 362.45 14.2378 362.45 13.5058C362.45 12.5098 362.702 11.7418 363.206 11.2018C363.71 10.6498 364.442 10.3738 365.402 10.3738C366.35 10.3738 367.064 10.6498 367.544 11.2018C368.036 11.7418 368.282 12.5218 368.282 13.5418V14.0638H366.41V13.4158C366.41 12.9838 366.326 12.6718 366.158 12.4798C365.99 12.2758 365.744 12.1738 365.42 12.1738C364.76 12.1738 364.43 12.5758 364.43 13.3798C364.43 13.8358 364.55 14.2618 364.79 14.6578C365.042 15.0538 365.492 15.5338 366.14 16.0978C366.968 16.8178 367.538 17.4718 367.85 18.0598C368.162 18.6478 368.318 19.3378 368.318 20.1298C368.318 21.1618 368.06 21.9538 367.544 22.5058C367.04 23.0578 366.302 23.3338 365.33 23.3338ZM369.454 10.5538H371.434V15.6838H373.558V10.5538H375.538V23.1538H373.558V17.4838H371.434V23.1538H369.454V10.5538ZM377.012 10.5538H378.992V23.1538H377.012V10.5538ZM380.475 10.5538H383.391C384.375 10.5538 385.113 10.8178 385.605 11.3458C386.097 11.8738 386.343 12.6478 386.343 13.6678V14.9098C386.343 15.9298 386.097 16.7038 385.605 17.2318C385.113 17.7598 384.375 18.0238 383.391 18.0238H382.455V23.1538H380.475V10.5538ZM383.391 16.2238C383.715 16.2238 383.955 16.1338 384.111 15.9538C384.279 15.7738 384.363 15.4678 384.363 15.0358V13.5418C384.363 13.1098 384.279 12.8038 384.111 12.6238C383.955 12.4438 383.715 12.3538 383.391 12.3538H382.455V16.2238H383.391ZM387.418 10.5538H390.334C391.318 10.5538 392.056 10.8178 392.548 11.3458C393.04 11.8738 393.286 12.6478 393.286 13.6678V14.9098C393.286 15.9298 393.04 16.7038 392.548 17.2318C392.056 17.7598 391.318 18.0238 390.334 18.0238H389.398V23.1538H387.418V10.5538ZM390.334 16.2238C390.658 16.2238 390.898 16.1338 391.054 15.9538C391.222 15.7738 391.306 15.4678 391.306 15.0358V13.5418C391.306 13.1098 391.222 12.8038 391.054 12.6238C390.898 12.4438 390.658 12.3538 390.334 12.3538H389.398V16.2238H390.334ZM394.362 10.5538H396.342V23.1538H394.362V10.5538ZM397.825 10.5538H400.309L402.235 18.0958H402.271V10.5538H404.035V23.1538H402.001L399.625 13.9558H399.589V23.1538H397.825V10.5538ZM408.314 23.3338C407.354 23.3338 406.622 23.0638 406.118 22.5238C405.614 21.9718 405.362 21.1858 405.362 20.1658V13.5418C405.362 12.5218 405.614 11.7418 406.118 11.2018C406.622 10.6498 407.354 10.3738 408.314 10.3738C409.274 10.3738 410.006 10.6498 410.51 11.2018C411.014 11.7418 411.266 12.5218 411.266 13.5418V14.6218H409.394V13.4158C409.394 12.5878 409.052 12.1738 408.368 12.1738C407.684 12.1738 407.342 12.5878 407.342 13.4158V20.3098C407.342 21.1258 407.684 21.5338 408.368 21.5338C409.052 21.5338 409.394 21.1258 409.394 20.3098V17.8438H408.404V16.0438H411.266V20.1658C411.266 21.1858 411.014 21.9718 410.51 22.5238C410.006 23.0638 409.274 23.3338 408.314 23.3338Z" fill="black"/>
<defs>
<clipPath id="clip0">
<rect width="34.2235" height="27.6923" fill="white" transform="translate(42 4.15384)"/>
</clipPath>
<clipPath id="clip1">
<rect width="22" height="32" fill="white" transform="translate(501)"/>
</clipPath>
<clipPath id="clip2">
<rect width="34.2235" height="27.6923" fill="white" transform="translate(260.504 4.15384)"/>
</clipPath>
</defs>
</svg>
