<svg width="695" height="482" viewBox="0 0 695 482" fill="none" xmlns="http://www.w3.org/2000/svg">
<line y1="-0.15" x2="695" y2="-0.15" transform="matrix(1 0.00087513 -0.00217352 0.999998 0 72.3918)" stroke="black" stroke-width="0.3"/>
<line y1="-0.15" x2="695" y2="-0.15" transform="matrix(1 0.00063549 -0.00157834 0.999999 0 153.558)" stroke="black" stroke-width="0.3"/>
<line y1="-0.15" x2="695.001" y2="-0.15" transform="matrix(0.999999 0.00135542 -0.00336638 0.999994 0 397.058)" stroke="black" stroke-width="0.3"/>
<line y1="-0.15" x2="687.12" y2="-0.15" transform="matrix(1 0.00015798 -0.000392368 1 0 315.891)" stroke="black" stroke-width="0.3"/>
<line y1="-0.15" x2="695" y2="-0.15" transform="matrix(1 0.000395828 -0.000983103 1 0 234.725)" stroke="black" stroke-width="0.3"/>
<path d="M363.79 45.8828C363.311 45.8828 362.917 45.8125 362.61 45.6719V44.9844C363.016 45.0885 363.404 45.1406 363.774 45.1406C365.035 45.1406 365.665 44.4531 365.665 43.0781V31.5781H366.462V43C366.462 44.9219 365.571 45.8828 363.79 45.8828ZM374.579 43L374.384 41.6562H374.321C373.894 42.2031 373.454 42.5911 373.001 42.8203C372.553 43.0443 372.022 43.1562 371.407 43.1562C370.574 43.1562 369.925 42.9427 369.462 42.5156C368.998 42.0885 368.766 41.4974 368.766 40.7422C368.766 39.9141 369.11 39.2708 369.798 38.8125C370.49 38.3542 371.49 38.112 372.798 38.0859L374.415 38.0391V37.4766C374.415 36.6693 374.251 36.0599 373.923 35.6484C373.594 35.237 373.066 35.0312 372.337 35.0312C371.55 35.0312 370.735 35.25 369.891 35.6875L369.602 35.0156C370.535 34.5781 371.456 34.3594 372.368 34.3594C373.3 34.3594 373.996 34.6016 374.454 35.0859C374.917 35.5703 375.149 36.3255 375.149 37.3516V43H374.579ZM371.454 42.4531C372.36 42.4531 373.074 42.1953 373.594 41.6797C374.121 41.1589 374.384 40.4375 374.384 39.5156V38.6797L372.899 38.7422C371.706 38.7995 370.855 38.987 370.344 39.3047C369.839 39.6172 369.587 40.1068 369.587 40.7734C369.587 41.3047 369.748 41.7188 370.071 42.0156C370.399 42.3073 370.86 42.4531 371.454 42.4531ZM381.54 43.1562C380.233 43.1562 379.279 42.6667 378.68 41.6875H378.626L378.649 42.3438C378.67 42.7292 378.68 43.151 378.68 43.6094V46.8438H377.907V34.5078H378.563L378.712 35.7188H378.759C379.342 34.8021 380.274 34.3438 381.555 34.3438C382.701 34.3438 383.574 34.7214 384.173 35.4766C384.777 36.2266 385.079 37.3203 385.079 38.7578C385.079 40.1536 384.761 41.237 384.126 42.0078C383.496 42.7734 382.634 43.1562 381.54 43.1562ZM381.524 42.4688C382.394 42.4688 383.066 42.1458 383.54 41.5C384.019 40.8542 384.259 39.9505 384.259 38.7891C384.259 36.2943 383.358 35.0469 381.555 35.0469C380.566 35.0469 379.839 35.3203 379.376 35.8672C378.912 36.4089 378.68 37.2943 378.68 38.5234V38.7734C378.68 40.1016 378.902 41.0495 379.344 41.6172C379.792 42.1849 380.519 42.4688 381.524 42.4688ZM392.594 43L392.399 41.6562H392.337C391.91 42.2031 391.469 42.5911 391.016 42.8203C390.568 43.0443 390.037 43.1562 389.423 43.1562C388.589 43.1562 387.941 42.9427 387.477 42.5156C387.014 42.0885 386.782 41.4974 386.782 40.7422C386.782 39.9141 387.126 39.2708 387.813 38.8125C388.506 38.3542 389.506 38.112 390.813 38.0859L392.43 38.0391V37.4766C392.43 36.6693 392.266 36.0599 391.938 35.6484C391.61 35.237 391.081 35.0312 390.352 35.0312C389.566 35.0312 388.751 35.25 387.907 35.6875L387.618 35.0156C388.55 34.5781 389.472 34.3594 390.384 34.3594C391.316 34.3594 392.011 34.6016 392.469 35.0859C392.933 35.5703 393.165 36.3255 393.165 37.3516V43H392.594ZM389.469 42.4531C390.376 42.4531 391.089 42.1953 391.61 41.6797C392.136 41.1589 392.399 40.4375 392.399 39.5156V38.6797L390.915 38.7422C389.722 38.7995 388.871 38.987 388.36 39.3047C387.855 39.6172 387.602 40.1068 387.602 40.7734C387.602 41.3047 387.764 41.7188 388.087 42.0156C388.415 42.3073 388.876 42.4531 389.469 42.4531ZM401.844 43V37.4922C401.844 36.638 401.665 36.0182 401.305 35.6328C400.946 35.2422 400.389 35.0469 399.634 35.0469C398.618 35.0469 397.873 35.3047 397.399 35.8203C396.93 36.3307 396.696 37.1615 396.696 38.3125V43H395.923V34.5078H396.579L396.727 35.6719H396.774C397.326 34.7865 398.308 34.3438 399.719 34.3438C401.647 34.3438 402.61 35.3776 402.61 37.4453V43H401.844ZM414.587 32.1328C413.154 32.1328 412.027 32.5911 411.204 33.5078C410.381 34.4245 409.969 35.6797 409.969 37.2734C409.969 38.9036 410.358 40.1693 411.134 41.0703C411.91 41.9714 413.019 42.4219 414.462 42.4219C415.42 42.4219 416.3 42.2995 417.102 42.0547V42.7578C416.347 43.0234 415.404 43.1562 414.274 43.1562C412.67 43.1562 411.407 42.638 410.485 41.6016C409.563 40.5651 409.102 39.1172 409.102 37.2578C409.102 36.0964 409.321 35.0729 409.759 34.1875C410.201 33.3021 410.834 32.6198 411.657 32.1406C412.485 31.6562 413.446 31.4141 414.54 31.4141C415.654 31.4141 416.652 31.6224 417.532 32.0391L417.212 32.7578C416.378 32.3411 415.503 32.1328 414.587 32.1328ZM425.376 43V37.4922C425.376 36.638 425.196 36.0182 424.837 35.6328C424.477 35.2422 423.92 35.0469 423.165 35.0469C422.149 35.0469 421.404 35.3047 420.93 35.8203C420.462 36.3307 420.227 37.1615 420.227 38.3125V43H419.454V30.8438H420.227V34.7109L420.188 35.7969H420.243C420.561 35.2865 420.962 34.9167 421.446 34.6875C421.93 34.4583 422.532 34.3438 423.251 34.3438C425.178 34.3438 426.141 35.3776 426.141 37.4453V43H425.376ZM432.235 34.3438C432.594 34.3438 432.98 34.3802 433.391 34.4531L433.243 35.1953C432.889 35.1068 432.522 35.0625 432.141 35.0625C431.417 35.0625 430.824 35.3698 430.36 35.9844C429.897 36.599 429.665 37.375 429.665 38.3125V43H428.891V34.5078H429.548L429.626 36.0391H429.68C430.029 35.4141 430.402 34.9766 430.798 34.7266C431.193 34.4714 431.673 34.3438 432.235 34.3438ZM442.149 38.7422C442.149 40.1276 441.813 41.2109 441.141 41.9922C440.469 42.7682 439.542 43.1562 438.36 43.1562C437.615 43.1562 436.959 42.9766 436.391 42.6172C435.824 42.2578 435.389 41.7422 435.087 41.0703C434.785 40.3984 434.634 39.6224 434.634 38.7422C434.634 37.3568 434.969 36.2786 435.641 35.5078C436.313 34.7318 437.235 34.3438 438.407 34.3438C439.574 34.3438 440.488 34.737 441.149 35.5234C441.816 36.3047 442.149 37.3776 442.149 38.7422ZM435.446 38.7422C435.446 39.9089 435.701 40.8203 436.212 41.4766C436.727 42.1276 437.454 42.4531 438.391 42.4531C439.329 42.4531 440.053 42.1276 440.563 41.4766C441.079 40.8203 441.337 39.9089 441.337 38.7422C441.337 37.5703 441.076 36.6615 440.555 36.0156C440.04 35.3698 439.313 35.0469 438.376 35.0469C437.438 35.0469 436.714 35.3698 436.204 36.0156C435.699 36.6562 435.446 37.5651 435.446 38.7422ZM450.423 43V37.4922C450.423 36.638 450.243 36.0182 449.884 35.6328C449.524 35.2422 448.967 35.0469 448.212 35.0469C447.196 35.0469 446.451 35.3047 445.977 35.8203C445.509 36.3307 445.274 37.1615 445.274 38.3125V43H444.501V34.5078H445.157L445.305 35.6719H445.352C445.904 34.7865 446.886 34.3438 448.298 34.3438C450.225 34.3438 451.188 35.3776 451.188 37.4453V43H450.423ZM460.962 38.7422C460.962 40.1276 460.626 41.2109 459.954 41.9922C459.282 42.7682 458.355 43.1562 457.173 43.1562C456.428 43.1562 455.772 42.9766 455.204 42.6172C454.636 42.2578 454.201 41.7422 453.899 41.0703C453.597 40.3984 453.446 39.6224 453.446 38.7422C453.446 37.3568 453.782 36.2786 454.454 35.5078C455.126 34.7318 456.048 34.3438 457.219 34.3438C458.386 34.3438 459.3 34.737 459.962 35.5234C460.628 36.3047 460.962 37.3776 460.962 38.7422ZM454.259 38.7422C454.259 39.9089 454.514 40.8203 455.024 41.4766C455.54 42.1276 456.266 42.4531 457.204 42.4531C458.141 42.4531 458.865 42.1276 459.376 41.4766C459.891 40.8203 460.149 39.9089 460.149 38.7422C460.149 37.5703 459.889 36.6615 459.368 36.0156C458.852 35.3698 458.126 35.0469 457.188 35.0469C456.251 35.0469 455.527 35.3698 455.016 36.0156C454.511 36.6562 454.259 37.5651 454.259 38.7422ZM474.415 31.5781H475.282L471.009 43H470.305L466.048 31.5781H466.899L469.774 39.3516C470.212 40.5234 470.506 41.4036 470.657 41.9922C470.761 41.6016 470.967 40.9948 471.274 40.1719L474.415 31.5781ZM483.891 43H482.977L479.602 37.6719L476.165 43H475.282L479.126 37.0469L475.634 31.5781H476.532L479.618 36.4688L482.751 31.5781H483.602L480.063 37.0312L483.891 43ZM486.501 43L491.204 32.3281H484.743V31.5781H492.134V32.1484L487.415 43H486.501ZM501.524 34.8594C501.524 35.9635 501.149 36.8099 500.399 37.3984C499.649 37.987 498.587 38.2812 497.212 38.2812H495.446V43H494.649V31.5781H497.446C500.165 31.5781 501.524 32.6719 501.524 34.8594ZM495.446 37.5938H497.016C498.303 37.5938 499.233 37.3828 499.805 36.9609C500.378 36.5339 500.665 35.8438 500.665 34.8906C500.665 34.0104 500.394 33.3594 499.852 32.9375C499.311 32.5104 498.472 32.2969 497.337 32.2969H495.446V37.5938Z" fill="black"/>
<path d="M371.696 439.266C371.696 439.974 371.472 440.57 371.024 441.055C370.581 441.539 369.985 441.849 369.235 441.984V442.031C370.152 442.146 370.85 442.438 371.329 442.906C371.808 443.375 372.048 444.005 372.048 444.797C372.048 445.865 371.683 446.693 370.954 447.281C370.23 447.865 369.186 448.156 367.821 448.156C366.66 448.156 365.647 447.94 364.782 447.508V446.734C365.219 446.964 365.709 447.143 366.251 447.273C366.798 447.404 367.311 447.469 367.79 447.469C368.941 447.469 369.805 447.237 370.384 446.773C370.962 446.305 371.251 445.646 371.251 444.797C371.251 444.042 370.954 443.461 370.36 443.055C369.772 442.648 368.904 442.445 367.759 442.445H366.524V441.695H367.774C368.722 441.695 369.472 441.471 370.024 441.023C370.581 440.57 370.86 439.958 370.86 439.188C370.86 438.552 370.634 438.044 370.18 437.664C369.733 437.279 369.144 437.086 368.415 437.086C367.847 437.086 367.329 437.167 366.86 437.328C366.391 437.484 365.865 437.755 365.282 438.141L364.899 437.617C365.342 437.247 365.876 436.956 366.501 436.742C367.126 436.523 367.759 436.414 368.399 436.414C369.451 436.414 370.264 436.664 370.837 437.164C371.41 437.659 371.696 438.359 371.696 439.266ZM380.305 443.969H375.665L374.071 448H373.188L377.782 436.531H378.29L382.79 448H381.891L380.305 443.969ZM375.954 443.25H380.04L378.485 439.133C378.355 438.81 378.199 438.362 378.016 437.789C377.876 438.289 377.722 438.742 377.555 439.148L375.954 443.25ZM387.391 448H386.587V437.328H382.876V436.578H391.102V437.328H387.391V448ZM397.829 448L393.571 437.453H393.509C393.55 438.099 393.571 438.76 393.571 439.438V448H392.805V436.578H394.04L398.087 446.625H398.134L402.18 436.578H403.384V448H402.579V439.344C402.579 438.74 402.61 438.115 402.673 437.469H402.61L398.337 448H397.829Z" fill="black"/>
<path d="M371.969 365.055C371.969 366.008 371.618 366.763 370.915 367.32C370.217 367.878 369.287 368.156 368.126 368.156C366.73 368.156 365.66 368.003 364.915 367.695V366.898C365.738 367.247 366.787 367.422 368.063 367.422C369.001 367.422 369.743 367.208 370.29 366.781C370.842 366.349 371.118 365.784 371.118 365.086C371.118 364.654 371.027 364.297 370.844 364.016C370.662 363.729 370.365 363.469 369.954 363.234C369.542 363 368.938 362.747 368.141 362.477C366.975 362.076 366.167 361.643 365.719 361.18C365.277 360.711 365.055 360.089 365.055 359.312C365.055 358.458 365.389 357.763 366.055 357.227C366.727 356.685 367.589 356.414 368.641 356.414C369.714 356.414 370.722 356.617 371.665 357.023L371.376 357.711C370.428 357.315 369.522 357.117 368.657 357.117C367.813 357.117 367.141 357.312 366.641 357.703C366.141 358.094 365.891 358.625 365.891 359.297C365.891 359.719 365.967 360.065 366.118 360.336C366.274 360.607 366.527 360.852 366.876 361.07C367.225 361.284 367.824 361.542 368.673 361.844C369.563 362.151 370.233 362.451 370.68 362.742C371.128 363.029 371.454 363.357 371.657 363.727C371.865 364.091 371.969 364.534 371.969 365.055ZM379.344 368L379.149 366.656H379.087C378.66 367.203 378.219 367.591 377.766 367.82C377.318 368.044 376.787 368.156 376.173 368.156C375.339 368.156 374.691 367.943 374.227 367.516C373.764 367.089 373.532 366.497 373.532 365.742C373.532 364.914 373.876 364.271 374.563 363.812C375.256 363.354 376.256 363.112 377.563 363.086L379.18 363.039V362.477C379.18 361.669 379.016 361.06 378.688 360.648C378.36 360.237 377.831 360.031 377.102 360.031C376.316 360.031 375.501 360.25 374.657 360.688L374.368 360.016C375.3 359.578 376.222 359.359 377.134 359.359C378.066 359.359 378.761 359.602 379.219 360.086C379.683 360.57 379.915 361.326 379.915 362.352V368H379.344ZM376.219 367.453C377.126 367.453 377.839 367.195 378.36 366.68C378.886 366.159 379.149 365.438 379.149 364.516V363.68L377.665 363.742C376.472 363.799 375.621 363.987 375.11 364.305C374.605 364.617 374.352 365.107 374.352 365.773C374.352 366.305 374.514 366.719 374.837 367.016C375.165 367.307 375.626 367.453 376.219 367.453ZM386.305 368.156C384.998 368.156 384.045 367.667 383.446 366.688H383.391L383.415 367.344C383.436 367.729 383.446 368.151 383.446 368.609V371.844H382.673V359.508H383.329L383.477 360.719H383.524C384.108 359.802 385.04 359.344 386.321 359.344C387.467 359.344 388.339 359.721 388.938 360.477C389.542 361.227 389.844 362.32 389.844 363.758C389.844 365.154 389.527 366.237 388.891 367.008C388.261 367.773 387.399 368.156 386.305 368.156ZM386.29 367.469C387.16 367.469 387.831 367.146 388.305 366.5C388.785 365.854 389.024 364.951 389.024 363.789C389.024 361.294 388.123 360.047 386.321 360.047C385.331 360.047 384.605 360.32 384.141 360.867C383.678 361.409 383.446 362.294 383.446 363.523V363.773C383.446 365.102 383.667 366.049 384.11 366.617C384.558 367.185 385.285 367.469 386.29 367.469ZM395.837 368.156C394.529 368.156 393.576 367.667 392.977 366.688H392.923L392.946 367.344C392.967 367.729 392.977 368.151 392.977 368.609V371.844H392.204V359.508H392.86L393.009 360.719H393.055C393.639 359.802 394.571 359.344 395.852 359.344C396.998 359.344 397.871 359.721 398.469 360.477C399.074 361.227 399.376 362.32 399.376 363.758C399.376 365.154 399.058 366.237 398.423 367.008C397.792 367.773 396.93 368.156 395.837 368.156ZM395.821 367.469C396.691 367.469 397.363 367.146 397.837 366.5C398.316 365.854 398.555 364.951 398.555 363.789C398.555 361.294 397.654 360.047 395.852 360.047C394.863 360.047 394.136 360.32 393.673 360.867C393.209 361.409 392.977 362.294 392.977 363.523V363.773C392.977 365.102 393.199 366.049 393.641 366.617C394.089 367.185 394.816 367.469 395.821 367.469ZM407.657 368V362.492C407.657 361.638 407.477 361.018 407.118 360.633C406.759 360.242 406.201 360.047 405.446 360.047C404.43 360.047 403.686 360.305 403.212 360.82C402.743 361.331 402.509 362.161 402.509 363.312V368H401.735V355.844H402.509V359.711L402.469 360.797H402.524C402.842 360.286 403.243 359.917 403.727 359.688C404.212 359.458 404.813 359.344 405.532 359.344C407.459 359.344 408.423 360.378 408.423 362.445V368H407.657ZM411.946 368H411.173V359.508H411.946V368ZM411.063 357.148C411.063 356.648 411.227 356.398 411.555 356.398C411.717 356.398 411.842 356.464 411.93 356.594C412.024 356.724 412.071 356.909 412.071 357.148C412.071 357.383 412.024 357.568 411.93 357.703C411.842 357.839 411.717 357.906 411.555 357.906C411.227 357.906 411.063 357.654 411.063 357.148ZM418.141 359.344C418.501 359.344 418.886 359.38 419.298 359.453L419.149 360.195C418.795 360.107 418.428 360.062 418.048 360.062C417.324 360.062 416.73 360.37 416.266 360.984C415.803 361.599 415.571 362.375 415.571 363.312V368H414.798V359.508H415.454L415.532 361.039H415.587C415.936 360.414 416.308 359.977 416.704 359.727C417.1 359.471 417.579 359.344 418.141 359.344ZM424.462 368.156C423.227 368.156 422.264 367.776 421.571 367.016C420.884 366.255 420.54 365.19 420.54 363.82C420.54 362.466 420.873 361.383 421.54 360.57C422.206 359.753 423.105 359.344 424.235 359.344C425.235 359.344 426.024 359.693 426.602 360.391C427.18 361.089 427.469 362.036 427.469 363.234V363.859H421.352C421.363 365.026 421.634 365.917 422.165 366.531C422.701 367.146 423.467 367.453 424.462 367.453C424.946 367.453 425.371 367.419 425.735 367.352C426.105 367.284 426.571 367.138 427.134 366.914V367.617C426.654 367.826 426.212 367.966 425.805 368.039C425.399 368.117 424.951 368.156 424.462 368.156ZM424.235 360.031C423.417 360.031 422.761 360.302 422.266 360.844C421.772 361.38 421.483 362.156 421.399 363.172H426.649C426.649 362.188 426.436 361.419 426.009 360.867C425.581 360.31 424.99 360.031 424.235 360.031Z" fill="black"/>
<path d="M371.969 283.055C371.969 284.008 371.618 284.763 370.915 285.32C370.217 285.878 369.287 286.156 368.126 286.156C366.73 286.156 365.66 286.003 364.915 285.695V284.898C365.738 285.247 366.787 285.422 368.063 285.422C369.001 285.422 369.743 285.208 370.29 284.781C370.842 284.349 371.118 283.784 371.118 283.086C371.118 282.654 371.027 282.297 370.844 282.016C370.662 281.729 370.365 281.469 369.954 281.234C369.542 281 368.938 280.747 368.141 280.477C366.975 280.076 366.167 279.643 365.719 279.18C365.277 278.711 365.055 278.089 365.055 277.312C365.055 276.458 365.389 275.763 366.055 275.227C366.727 274.685 367.589 274.414 368.641 274.414C369.714 274.414 370.722 274.617 371.665 275.023L371.376 275.711C370.428 275.315 369.522 275.117 368.657 275.117C367.813 275.117 367.141 275.312 366.641 275.703C366.141 276.094 365.891 276.625 365.891 277.297C365.891 277.719 365.967 278.065 366.118 278.336C366.274 278.607 366.527 278.852 366.876 279.07C367.225 279.284 367.824 279.542 368.673 279.844C369.563 280.151 370.233 280.451 370.68 280.742C371.128 281.029 371.454 281.357 371.657 281.727C371.865 282.091 371.969 282.534 371.969 283.055ZM376.43 285.469C376.92 285.469 377.347 285.427 377.712 285.344V285.969C377.337 286.094 376.904 286.156 376.415 286.156C375.665 286.156 375.11 285.956 374.751 285.555C374.397 285.154 374.219 284.523 374.219 283.664V278.18H372.962V277.727L374.219 277.375L374.61 275.453H375.009V277.508H377.501V278.18H375.009V283.555C375.009 284.206 375.123 284.688 375.352 285C375.581 285.312 375.941 285.469 376.43 285.469ZM382.977 286.156C381.743 286.156 380.779 285.776 380.087 285.016C379.399 284.255 379.055 283.19 379.055 281.82C379.055 280.466 379.389 279.383 380.055 278.57C380.722 277.753 381.621 277.344 382.751 277.344C383.751 277.344 384.54 277.693 385.118 278.391C385.696 279.089 385.985 280.036 385.985 281.234V281.859H379.868C379.878 283.026 380.149 283.917 380.68 284.531C381.217 285.146 381.983 285.453 382.977 285.453C383.462 285.453 383.886 285.419 384.251 285.352C384.621 285.284 385.087 285.138 385.649 284.914V285.617C385.17 285.826 384.727 285.966 384.321 286.039C383.915 286.117 383.467 286.156 382.977 286.156ZM382.751 278.031C381.933 278.031 381.277 278.302 380.782 278.844C380.287 279.38 379.998 280.156 379.915 281.172H385.165C385.165 280.188 384.951 279.419 384.524 278.867C384.097 278.31 383.506 278.031 382.751 278.031ZM391.759 286.156C390.524 286.156 389.561 285.776 388.868 285.016C388.18 284.255 387.837 283.19 387.837 281.82C387.837 280.466 388.17 279.383 388.837 278.57C389.503 277.753 390.402 277.344 391.532 277.344C392.532 277.344 393.321 277.693 393.899 278.391C394.477 279.089 394.766 280.036 394.766 281.234V281.859H388.649C388.66 283.026 388.93 283.917 389.462 284.531C389.998 285.146 390.764 285.453 391.759 285.453C392.243 285.453 392.667 285.419 393.032 285.352C393.402 285.284 393.868 285.138 394.43 284.914V285.617C393.951 285.826 393.509 285.966 393.102 286.039C392.696 286.117 392.248 286.156 391.759 286.156ZM391.532 278.031C390.714 278.031 390.058 278.302 389.563 278.844C389.068 279.38 388.779 280.156 388.696 281.172H393.946C393.946 280.188 393.733 279.419 393.305 278.867C392.878 278.31 392.287 278.031 391.532 278.031ZM397.884 286H397.11V273.844H397.884V286ZM405.087 274.578H408.219C409.631 274.578 410.667 274.818 411.329 275.297C411.99 275.776 412.321 276.5 412.321 277.469C412.321 278.13 412.118 278.682 411.712 279.125C411.311 279.562 410.722 279.844 409.946 279.969V280.016C410.858 280.151 411.527 280.44 411.954 280.883C412.386 281.32 412.602 281.932 412.602 282.719C412.602 283.771 412.253 284.581 411.555 285.148C410.858 285.716 409.868 286 408.587 286H405.087V274.578ZM405.884 279.664H408.399C409.472 279.664 410.251 279.487 410.735 279.133C411.225 278.773 411.469 278.214 411.469 277.453C411.469 276.693 411.193 276.141 410.641 275.797C410.094 275.453 409.277 275.281 408.188 275.281H405.884V279.664ZM405.884 280.367V285.297H408.571C410.686 285.297 411.743 284.438 411.743 282.719C411.743 281.151 410.628 280.367 408.399 280.367H405.884ZM415.594 277.508V283.008C415.594 283.862 415.774 284.484 416.134 284.875C416.493 285.26 417.05 285.453 417.805 285.453C418.816 285.453 419.558 285.198 420.032 284.688C420.511 284.177 420.751 283.346 420.751 282.195V277.508H421.516V286H420.86L420.719 284.828H420.673C420.121 285.714 419.139 286.156 417.727 286.156C415.795 286.156 414.829 285.122 414.829 283.055V277.508H415.594ZM427.751 286.156C426.537 286.156 425.587 285.773 424.899 285.008C424.212 284.242 423.868 283.174 423.868 281.805C423.868 280.398 424.225 279.305 424.938 278.523C425.652 277.737 426.628 277.344 427.868 277.344C428.602 277.344 429.305 277.471 429.977 277.727L429.766 278.414C429.032 278.169 428.394 278.047 427.852 278.047C426.811 278.047 426.022 278.37 425.485 279.016C424.949 279.656 424.68 280.581 424.68 281.789C424.68 282.935 424.949 283.833 425.485 284.484C426.022 285.13 426.772 285.453 427.735 285.453C428.506 285.453 429.222 285.315 429.884 285.039V285.758C429.342 286.023 428.631 286.156 427.751 286.156ZM432.727 282.273L437.063 277.508H438.001L434.657 281.133L438.29 286H437.36L434.134 281.711L432.743 282.977V286H431.969V273.844H432.743V279.938L432.688 282.273H432.727ZM440.493 286H439.719V273.844H440.493V286ZM446.774 286.156C445.54 286.156 444.576 285.776 443.884 285.016C443.196 284.255 442.852 283.19 442.852 281.82C442.852 280.466 443.186 279.383 443.852 278.57C444.519 277.753 445.417 277.344 446.548 277.344C447.548 277.344 448.337 277.693 448.915 278.391C449.493 279.089 449.782 280.036 449.782 281.234V281.859H443.665C443.675 283.026 443.946 283.917 444.477 284.531C445.014 285.146 445.779 285.453 446.774 285.453C447.259 285.453 447.683 285.419 448.048 285.352C448.417 285.284 448.884 285.138 449.446 284.914V285.617C448.967 285.826 448.524 285.966 448.118 286.039C447.712 286.117 447.264 286.156 446.774 286.156ZM446.548 278.031C445.73 278.031 445.074 278.302 444.579 278.844C444.084 279.38 443.795 280.156 443.712 281.172H448.962C448.962 280.188 448.748 279.419 448.321 278.867C447.894 278.31 447.303 278.031 446.548 278.031Z" fill="black"/>
<path d="M372.079 205H364.93V204.312L367.969 201.141C368.824 200.255 369.423 199.578 369.766 199.109C370.11 198.641 370.363 198.193 370.524 197.766C370.686 197.339 370.766 196.891 370.766 196.422C370.766 195.74 370.542 195.185 370.094 194.758C369.647 194.331 369.066 194.117 368.352 194.117C367.399 194.117 366.488 194.464 365.618 195.156L365.196 194.617C366.149 193.815 367.206 193.414 368.368 193.414C369.363 193.414 370.144 193.68 370.712 194.211C371.285 194.742 371.571 195.474 371.571 196.406C371.571 197.161 371.378 197.893 370.993 198.602C370.613 199.305 369.915 200.174 368.899 201.211L365.969 204.219V204.25H372.079V205ZM381.43 199.258C381.43 201.263 381.123 202.747 380.509 203.711C379.899 204.674 378.975 205.156 377.735 205.156C376.542 205.156 375.636 204.661 375.016 203.672C374.397 202.677 374.087 201.206 374.087 199.258C374.087 197.268 374.386 195.794 374.985 194.836C375.589 193.878 376.506 193.398 377.735 193.398C378.938 193.398 379.855 193.896 380.485 194.891C381.115 195.88 381.43 197.336 381.43 199.258ZM374.93 199.258C374.93 201.029 375.162 202.339 375.626 203.188C376.089 204.031 376.792 204.453 377.735 204.453C378.719 204.453 379.436 204.016 379.884 203.141C380.337 202.266 380.563 200.971 380.563 199.258C380.563 197.57 380.337 196.289 379.884 195.414C379.436 194.539 378.719 194.102 377.735 194.102C376.751 194.102 376.037 194.539 375.594 195.414C375.152 196.289 374.93 197.57 374.93 199.258ZM394.36 205V199.43C394.36 198.602 394.199 197.997 393.876 197.617C393.553 197.237 393.058 197.047 392.391 197.047C391.522 197.047 390.878 197.286 390.462 197.766C390.045 198.245 389.837 198.997 389.837 200.023V205H389.048V199.195C389.048 197.763 388.391 197.047 387.079 197.047C386.188 197.047 385.54 197.307 385.134 197.828C384.727 198.344 384.524 199.172 384.524 200.312V205H383.751V196.508H384.391L384.555 197.672H384.602C384.837 197.25 385.17 196.924 385.602 196.695C386.035 196.461 386.511 196.344 387.032 196.344C388.371 196.344 389.23 196.846 389.61 197.852H389.641C389.917 197.367 390.287 196.995 390.751 196.734C391.219 196.474 391.751 196.344 392.344 196.344C393.272 196.344 393.967 196.591 394.43 197.086C394.894 197.581 395.126 198.367 395.126 199.445V205H394.36ZM408.485 205V199.43C408.485 198.602 408.324 197.997 408.001 197.617C407.678 197.237 407.183 197.047 406.516 197.047C405.647 197.047 405.003 197.286 404.587 197.766C404.17 198.245 403.962 198.997 403.962 200.023V205H403.173V199.195C403.173 197.763 402.516 197.047 401.204 197.047C400.313 197.047 399.665 197.307 399.259 197.828C398.852 198.344 398.649 199.172 398.649 200.312V205H397.876V196.508H398.516L398.68 197.672H398.727C398.962 197.25 399.295 196.924 399.727 196.695C400.16 196.461 400.636 196.344 401.157 196.344C402.496 196.344 403.355 196.846 403.735 197.852H403.766C404.042 197.367 404.412 196.995 404.876 196.734C405.344 196.474 405.876 196.344 406.469 196.344C407.397 196.344 408.092 196.591 408.555 197.086C409.019 197.581 409.251 198.367 409.251 199.445V205H408.485Z" fill="black"/>
<path d="M371.696 115.266C371.696 115.974 371.472 116.57 371.024 117.055C370.581 117.539 369.985 117.849 369.235 117.984V118.031C370.152 118.146 370.85 118.438 371.329 118.906C371.808 119.375 372.048 120.005 372.048 120.797C372.048 121.865 371.683 122.693 370.954 123.281C370.23 123.865 369.186 124.156 367.821 124.156C366.66 124.156 365.647 123.94 364.782 123.508V122.734C365.219 122.964 365.709 123.143 366.251 123.273C366.798 123.404 367.311 123.469 367.79 123.469C368.941 123.469 369.805 123.237 370.384 122.773C370.962 122.305 371.251 121.646 371.251 120.797C371.251 120.042 370.954 119.461 370.36 119.055C369.772 118.648 368.904 118.445 367.759 118.445H366.524V117.695H367.774C368.722 117.695 369.472 117.471 370.024 117.023C370.581 116.57 370.86 115.958 370.86 115.188C370.86 114.552 370.634 114.044 370.18 113.664C369.733 113.279 369.144 113.086 368.415 113.086C367.847 113.086 367.329 113.167 366.86 113.328C366.391 113.484 365.865 113.755 365.282 114.141L364.899 113.617C365.342 113.247 365.876 112.956 366.501 112.742C367.126 112.523 367.759 112.414 368.399 112.414C369.451 112.414 370.264 112.664 370.837 113.164C371.41 113.659 371.696 114.359 371.696 115.266ZM381.282 117.422C381.282 118.922 381.084 120.177 380.688 121.188C380.298 122.198 379.725 122.945 378.969 123.43C378.219 123.914 377.311 124.156 376.243 124.156C375.701 124.156 375.201 124.089 374.743 123.953V123.281C374.967 123.354 375.235 123.411 375.548 123.453C375.865 123.49 376.108 123.508 376.274 123.508C377.561 123.508 378.568 123.044 379.298 122.117C380.027 121.185 380.433 119.828 380.516 118.047H380.423C380.042 118.547 379.589 118.932 379.063 119.203C378.537 119.469 377.988 119.602 377.415 119.602C376.358 119.602 375.532 119.31 374.938 118.727C374.35 118.143 374.055 117.315 374.055 116.242C374.055 115.096 374.378 114.169 375.024 113.461C375.675 112.753 376.519 112.398 377.555 112.398C378.305 112.398 378.962 112.596 379.524 112.992C380.087 113.383 380.519 113.958 380.821 114.719C381.128 115.479 381.282 116.38 381.282 117.422ZM377.555 113.086C376.733 113.086 376.076 113.365 375.587 113.922C375.097 114.474 374.852 115.232 374.852 116.195C374.852 117.102 375.079 117.789 375.532 118.258C375.985 118.727 376.634 118.961 377.477 118.961C378.003 118.961 378.493 118.844 378.946 118.609C379.404 118.375 379.766 118.065 380.032 117.68C380.303 117.289 380.438 116.893 380.438 116.492C380.438 115.883 380.316 115.312 380.071 114.781C379.831 114.25 379.493 113.836 379.055 113.539C378.623 113.237 378.123 113.086 377.555 113.086ZM394.36 124V118.43C394.36 117.602 394.199 116.997 393.876 116.617C393.553 116.237 393.058 116.047 392.391 116.047C391.522 116.047 390.878 116.286 390.462 116.766C390.045 117.245 389.837 117.997 389.837 119.023V124H389.048V118.195C389.048 116.763 388.391 116.047 387.079 116.047C386.188 116.047 385.54 116.307 385.134 116.828C384.727 117.344 384.524 118.172 384.524 119.312V124H383.751V115.508H384.391L384.555 116.672H384.602C384.837 116.25 385.17 115.924 385.602 115.695C386.035 115.461 386.511 115.344 387.032 115.344C388.371 115.344 389.23 115.846 389.61 116.852H389.641C389.917 116.367 390.287 115.995 390.751 115.734C391.219 115.474 391.751 115.344 392.344 115.344C393.272 115.344 393.967 115.591 394.43 116.086C394.894 116.581 395.126 117.367 395.126 118.445V124H394.36ZM408.485 124V118.43C408.485 117.602 408.324 116.997 408.001 116.617C407.678 116.237 407.183 116.047 406.516 116.047C405.647 116.047 405.003 116.286 404.587 116.766C404.17 117.245 403.962 117.997 403.962 119.023V124H403.173V118.195C403.173 116.763 402.516 116.047 401.204 116.047C400.313 116.047 399.665 116.307 399.259 116.828C398.852 117.344 398.649 118.172 398.649 119.312V124H397.876V115.508H398.516L398.68 116.672H398.727C398.962 116.25 399.295 115.924 399.727 115.695C400.16 115.461 400.636 115.344 401.157 115.344C402.496 115.344 403.355 115.846 403.735 116.852H403.766C404.042 116.367 404.412 115.995 404.876 115.734C405.344 115.474 405.876 115.344 406.469 115.344C407.397 115.344 408.092 115.591 408.555 116.086C409.019 116.581 409.251 117.367 409.251 118.445V124H408.485Z" fill="black"/>
<path d="M23.8485 112.1H28.8635C30.1215 112.1 31.2378 112.349 32.2125 112.848C33.1871 113.347 33.9408 114.049 34.4735 114.956C35.0175 115.851 35.2895 116.883 35.2895 118.05C35.2895 119.217 35.0175 120.254 34.4735 121.161C33.9408 122.056 33.1871 122.753 32.2125 123.252C31.2378 123.751 30.1215 124 28.8635 124H23.8485V112.1ZM28.7615 122.521C29.7248 122.521 30.5691 122.334 31.2945 121.96C32.0311 121.586 32.5978 121.065 32.9945 120.396C33.3911 119.716 33.5895 118.934 33.5895 118.05C33.5895 117.166 33.3911 116.39 32.9945 115.721C32.5978 115.041 32.0311 114.514 31.2945 114.14C30.5691 113.766 29.7248 113.579 28.7615 113.579H25.5485V122.521H28.7615ZM37.8934 112.1H39.5934V124H37.8934V112.1ZM50.7381 121.025H44.4141L43.1051 124H41.3541L46.7431 112.1H48.4261L53.8321 124H52.0471L50.7381 121.025ZM50.1431 119.665L47.5761 113.834L45.0091 119.665H50.1431ZM66.6403 124L66.6233 115.33L62.3223 122.555H61.5403L57.2393 115.381V124H55.6073V112.1H57.0013L61.9653 120.464L66.8613 112.1H68.2553L68.2723 124H66.6403ZM80.4796 122.521V124H71.8436V112.1H80.2416V113.579H73.5436V117.234H79.5106V118.679H73.5436V122.521H80.4796ZM85.5953 113.579H81.5153V112.1H91.3583V113.579H87.2783V124H85.5953V113.579ZM101.846 122.521V124H93.2098V112.1H101.608V113.579H94.9098V117.234H100.877V118.679H94.9098V122.521H101.846ZM112.554 124L109.987 120.345C109.67 120.368 109.421 120.379 109.239 120.379H106.298V124H104.598V112.1H109.239C110.781 112.1 111.993 112.468 112.877 113.205C113.761 113.942 114.203 114.956 114.203 116.248C114.203 117.166 113.977 117.948 113.523 118.594C113.07 119.24 112.424 119.71 111.585 120.005L114.407 124H112.554ZM109.188 118.934C110.265 118.934 111.087 118.702 111.653 118.237C112.22 117.772 112.503 117.109 112.503 116.248C112.503 115.387 112.22 114.729 111.653 114.276C111.087 113.811 110.265 113.579 109.188 113.579H106.298V118.934H109.188Z" fill="black"/>
<path d="M34.8815 47L34.8645 38.33L30.5635 45.555H29.7815L25.4805 38.381V47H23.8485V35.1H25.2425L30.2065 43.464L35.1025 35.1H36.4965L36.5135 47H34.8815ZM45.4568 47.136C44.2555 47.136 43.1731 46.8753 42.2098 46.354C41.2465 45.8213 40.4871 45.0903 39.9318 44.161C39.3878 43.2317 39.1158 42.1947 39.1158 41.05C39.1158 39.9053 39.3878 38.8683 39.9318 37.939C40.4871 37.0097 41.2465 36.2843 42.2098 35.763C43.1731 35.2303 44.2555 34.964 45.4568 34.964C46.6468 34.964 47.7235 35.2303 48.6868 35.763C49.6501 36.2843 50.4038 37.0097 50.9478 37.939C51.4918 38.857 51.7638 39.894 51.7638 41.05C51.7638 42.206 51.4918 43.2487 50.9478 44.178C50.4038 45.096 49.6501 45.8213 48.6868 46.354C47.7235 46.8753 46.6468 47.136 45.4568 47.136ZM45.4568 45.623C46.3295 45.623 47.1115 45.4247 47.8028 45.028C48.5055 44.6313 49.0551 44.0873 49.4518 43.396C49.8598 42.6933 50.0638 41.9113 50.0638 41.05C50.0638 40.1887 49.8598 39.4123 49.4518 38.721C49.0551 38.0183 48.5055 37.4687 47.8028 37.072C47.1115 36.6753 46.3295 36.477 45.4568 36.477C44.5841 36.477 43.7908 36.6753 43.0768 37.072C42.3741 37.4687 41.8188 38.0183 41.4108 38.721C41.0141 39.4123 40.8158 40.1887 40.8158 41.05C40.8158 41.9113 41.0141 42.6933 41.4108 43.396C41.8188 44.0873 42.3741 44.6313 43.0768 45.028C43.7908 45.4247 44.5841 45.623 45.4568 45.623ZM64.3163 35.1L59.0973 47H57.4143L52.1783 35.1H54.0143L58.2983 44.875L62.6163 35.1H64.3163ZM74.4698 45.521V47H65.8338V35.1H74.2318V36.579H67.5338V40.234H73.5008V41.679H67.5338V45.521H74.4698ZM88.2555 47L88.2385 38.33L83.9375 45.555H83.1555L78.8545 38.381V47H77.2225V35.1H78.6165L83.5805 43.464L88.4765 35.1H89.8705L89.8875 47H88.2555ZM102.095 45.521V47H93.4588V35.1H101.857V36.579H95.1588V40.234H101.126V41.679H95.1588V45.521H102.095ZM115.082 35.1V47H113.688L106.548 38.126V47H104.848V35.1H106.242L113.382 43.974V35.1H115.082ZM121.006 36.579H116.926V35.1H126.769V36.579H122.689V47H121.006V36.579Z" fill="black"/>
<path d="M40.6615 440.1L36.6835 452H34.8985L31.6515 442.497L28.4045 452H26.5855L22.6075 440.1H24.3585L27.5715 449.773L30.9205 440.1H32.4845L35.7655 449.824L39.0465 440.1H40.6615ZM49.9412 449.025H43.6172L42.3082 452H40.5572L45.9462 440.1H47.6292L53.0352 452H51.2502L49.9412 449.025ZM49.3462 447.665L46.7792 441.834L44.2122 447.665H49.3462ZM56.5757 441.579H52.4957V440.1H62.3387V441.579H58.2587V452H56.5757V441.579ZM72.8263 450.521V452H64.1903V440.1H72.5883V441.579H65.8903V445.234H71.8573V446.679H65.8903V450.521H72.8263ZM83.5349 452L80.9679 448.345C80.6506 448.368 80.4013 448.379 80.2199 448.379H77.2789V452H75.5789V440.1H80.2199C81.7613 440.1 82.9739 440.468 83.8579 441.205C84.7419 441.942 85.1839 442.956 85.1839 444.248C85.1839 445.166 84.9573 445.948 84.5039 446.594C84.0506 447.24 83.4046 447.71 82.5659 448.005L85.3879 452H83.5349ZM80.1689 446.934C81.2456 446.934 82.0673 446.702 82.6339 446.237C83.2006 445.772 83.4839 445.109 83.4839 444.248C83.4839 443.387 83.2006 442.729 82.6339 442.276C82.0673 441.811 81.2456 441.579 80.1689 441.579H77.2789V446.934H80.1689ZM100.452 452L97.8849 448.345C97.5676 448.368 97.3183 448.379 97.1369 448.379H94.1959V452H92.4959V440.1H97.1369C98.6783 440.1 99.8909 440.468 100.775 441.205C101.659 441.942 102.101 442.956 102.101 444.248C102.101 445.166 101.874 445.948 101.421 446.594C100.968 447.24 100.322 447.71 99.4829 448.005L102.305 452H100.452ZM97.0859 446.934C98.1626 446.934 98.9843 446.702 99.5509 446.237C100.118 445.772 100.401 445.109 100.401 444.248C100.401 443.387 100.118 442.729 99.5509 442.276C98.9843 441.811 98.1626 441.579 97.0859 441.579H94.1959V446.934H97.0859ZM113.484 450.521V452H104.848V440.1H113.246V441.579H106.548V445.234H112.515V446.679H106.548V450.521H113.484ZM119.704 452.136C118.809 452.136 117.942 452 117.103 451.728C116.276 451.445 115.624 451.082 115.148 450.64L115.777 449.314C116.231 449.722 116.809 450.056 117.511 450.317C118.225 450.566 118.956 450.691 119.704 450.691C120.69 450.691 121.427 450.527 121.914 450.198C122.402 449.858 122.645 449.41 122.645 448.855C122.645 448.447 122.509 448.118 122.237 447.869C121.977 447.608 121.648 447.41 121.251 447.274C120.866 447.138 120.316 446.985 119.602 446.815C118.707 446.6 117.982 446.384 117.426 446.169C116.882 445.954 116.412 445.625 116.015 445.183C115.63 444.73 115.437 444.123 115.437 443.364C115.437 442.729 115.602 442.157 115.93 441.647C116.27 441.137 116.78 440.729 117.46 440.423C118.14 440.117 118.985 439.964 119.993 439.964C120.696 439.964 121.387 440.055 122.067 440.236C122.747 440.417 123.331 440.678 123.818 441.018L123.257 442.378C122.759 442.061 122.226 441.823 121.659 441.664C121.093 441.494 120.537 441.409 119.993 441.409C119.03 441.409 118.305 441.585 117.817 441.936C117.341 442.287 117.103 442.741 117.103 443.296C117.103 443.704 117.239 444.038 117.511 444.299C117.783 444.548 118.118 444.747 118.514 444.894C118.922 445.03 119.472 445.177 120.163 445.336C121.059 445.551 121.778 445.767 122.322 445.982C122.866 446.197 123.331 446.526 123.716 446.968C124.113 447.41 124.311 448.005 124.311 448.753C124.311 449.376 124.141 449.949 123.801 450.47C123.461 450.98 122.946 451.388 122.254 451.694C121.563 451.989 120.713 452.136 119.704 452.136ZM126.795 440.1H128.495V452H126.795V440.1ZM135.525 452.136C134.63 452.136 133.763 452 132.924 451.728C132.097 451.445 131.445 451.082 130.969 450.64L131.598 449.314C132.052 449.722 132.63 450.056 133.332 450.317C134.046 450.566 134.777 450.691 135.525 450.691C136.511 450.691 137.248 450.527 137.735 450.198C138.223 449.858 138.466 449.41 138.466 448.855C138.466 448.447 138.33 448.118 138.058 447.869C137.798 447.608 137.469 447.41 137.072 447.274C136.687 447.138 136.137 446.985 135.423 446.815C134.528 446.6 133.803 446.384 133.247 446.169C132.703 445.954 132.233 445.625 131.836 445.183C131.451 444.73 131.258 444.123 131.258 443.364C131.258 442.729 131.423 442.157 131.751 441.647C132.091 441.137 132.601 440.729 133.281 440.423C133.961 440.117 134.806 439.964 135.814 439.964C136.517 439.964 137.208 440.055 137.888 440.236C138.568 440.417 139.152 440.678 139.639 441.018L139.078 442.378C138.58 442.061 138.047 441.823 137.48 441.664C136.914 441.494 136.358 441.409 135.814 441.409C134.851 441.409 134.126 441.585 133.638 441.936C133.162 442.287 132.924 442.741 132.924 443.296C132.924 443.704 133.06 444.038 133.332 444.299C133.604 444.548 133.939 444.747 134.335 444.894C134.743 445.03 135.293 445.177 135.984 445.336C136.88 445.551 137.599 445.767 138.143 445.982C138.687 446.197 139.152 446.526 139.537 446.968C139.934 447.41 140.132 448.005 140.132 448.753C140.132 449.376 139.962 449.949 139.622 450.47C139.282 450.98 138.767 451.388 138.075 451.694C137.384 451.989 136.534 452.136 135.525 452.136ZM144.813 441.579H140.733V440.1H150.576V441.579H146.496V452H144.813V441.579ZM161.064 450.521V452H152.428V440.1H160.826V441.579H154.128V445.234H160.095V446.679H154.128V450.521H161.064ZM174.05 440.1V452H172.656L165.516 443.126V452H163.816V440.1H165.21L172.35 448.974V440.1H174.05ZM182.933 452.136C181.743 452.136 180.666 451.875 179.703 451.354C178.751 450.821 178.003 450.096 177.459 449.178C176.915 448.249 176.643 447.206 176.643 446.05C176.643 444.894 176.915 443.857 177.459 442.939C178.003 442.01 178.757 441.284 179.72 440.763C180.683 440.23 181.76 439.964 182.95 439.964C183.879 439.964 184.729 440.123 185.5 440.44C186.271 440.746 186.928 441.205 187.472 441.817L186.367 442.888C185.472 441.947 184.355 441.477 183.018 441.477C182.134 441.477 181.335 441.675 180.621 442.072C179.907 442.469 179.346 443.018 178.938 443.721C178.541 444.412 178.343 445.189 178.343 446.05C178.343 446.911 178.541 447.693 178.938 448.396C179.346 449.087 179.907 449.631 180.621 450.028C181.335 450.425 182.134 450.623 183.018 450.623C184.344 450.623 185.46 450.147 186.367 449.195L187.472 450.266C186.928 450.878 186.265 451.343 185.483 451.66C184.712 451.977 183.862 452.136 182.933 452.136ZM198.533 450.521V452H189.897V440.1H198.295V441.579H191.597V445.234H197.564V446.679H191.597V450.521H198.533Z" fill="black"/>
<path d="M40.6615 359.1L36.6835 371H34.8985L31.6515 361.497L28.4045 371H26.5855L22.6075 359.1H24.3585L27.5715 368.773L30.9205 359.1H32.4845L35.7655 368.824L39.0465 359.1H40.6615ZM49.9412 368.025H43.6172L42.3082 371H40.5572L45.9462 359.1H47.6292L53.0352 371H51.2502L49.9412 368.025ZM49.3462 366.665L46.7792 360.834L44.2122 366.665H49.3462ZM56.5757 360.579H52.4957V359.1H62.3387V360.579H58.2587V371H56.5757V360.579ZM69.3453 371.136C68.1553 371.136 67.0786 370.875 66.1153 370.354C65.1633 369.821 64.4153 369.096 63.8713 368.178C63.3273 367.249 63.0553 366.206 63.0553 365.05C63.0553 363.894 63.3273 362.857 63.8713 361.939C64.4153 361.01 65.1689 360.284 66.1323 359.763C67.0956 359.23 68.1723 358.964 69.3623 358.964C70.2916 358.964 71.1416 359.123 71.9123 359.44C72.6829 359.746 73.3403 360.205 73.8843 360.817L72.7793 361.888C71.8839 360.947 70.7676 360.477 69.4303 360.477C68.5463 360.477 67.7473 360.675 67.0333 361.072C66.3193 361.469 65.7583 362.018 65.3503 362.721C64.9536 363.412 64.7553 364.189 64.7553 365.05C64.7553 365.911 64.9536 366.693 65.3503 367.396C65.7583 368.087 66.3193 368.631 67.0333 369.028C67.7473 369.425 68.5463 369.623 69.4303 369.623C70.7563 369.623 71.8726 369.147 72.7793 368.195L73.8843 369.266C73.3403 369.878 72.6773 370.343 71.8953 370.66C71.1246 370.977 70.2746 371.136 69.3453 371.136ZM86.5434 359.1V371H84.8434V365.696H78.0094V371H76.3094V359.1H78.0094V364.217H84.8434V359.1H86.5434ZM102.916 364.982H104.548V369.623C103.958 370.11 103.273 370.484 102.491 370.745C101.709 371.006 100.893 371.136 100.043 371.136C98.8414 371.136 97.7591 370.875 96.7957 370.354C95.8324 369.821 95.0731 369.096 94.5177 368.178C93.9737 367.249 93.7017 366.206 93.7017 365.05C93.7017 363.894 93.9737 362.851 94.5177 361.922C95.0731 360.993 95.8324 360.267 96.7957 359.746C97.7704 359.225 98.8641 358.964 100.077 358.964C101.029 358.964 101.89 359.123 102.661 359.44C103.443 359.746 104.106 360.199 104.65 360.8L103.596 361.854C102.644 360.936 101.493 360.477 100.145 360.477C99.2381 360.477 98.4221 360.675 97.6967 361.072C96.9827 361.457 96.4217 362.001 96.0137 362.704C95.6057 363.395 95.4017 364.177 95.4017 365.05C95.4017 365.911 95.6057 366.693 96.0137 367.396C96.4217 368.087 96.9827 368.631 97.6967 369.028C98.4221 369.425 99.2324 369.623 100.128 369.623C101.193 369.623 102.122 369.368 102.916 368.858V364.982ZM107.803 359.1H109.503V369.521H115.946V371H107.803V359.1ZM125.528 368.025H119.204L117.895 371H116.144L121.533 359.1H123.216L128.622 371H126.837L125.528 368.025ZM124.933 366.665L122.366 360.834L119.799 366.665H124.933ZM133.865 371.136C132.97 371.136 132.103 371 131.264 370.728C130.437 370.445 129.785 370.082 129.309 369.64L129.938 368.314C130.392 368.722 130.97 369.056 131.672 369.317C132.386 369.566 133.117 369.691 133.865 369.691C134.851 369.691 135.588 369.527 136.075 369.198C136.563 368.858 136.806 368.41 136.806 367.855C136.806 367.447 136.67 367.118 136.398 366.869C136.138 366.608 135.809 366.41 135.412 366.274C135.027 366.138 134.477 365.985 133.763 365.815C132.868 365.6 132.143 365.384 131.587 365.169C131.043 364.954 130.573 364.625 130.176 364.183C129.791 363.73 129.598 363.123 129.598 362.364C129.598 361.729 129.763 361.157 130.091 360.647C130.431 360.137 130.941 359.729 131.621 359.423C132.301 359.117 133.146 358.964 134.154 358.964C134.857 358.964 135.548 359.055 136.228 359.236C136.908 359.417 137.492 359.678 137.979 360.018L137.418 361.378C136.92 361.061 136.387 360.823 135.82 360.664C135.254 360.494 134.698 360.409 134.154 360.409C133.191 360.409 132.466 360.585 131.978 360.936C131.502 361.287 131.264 361.741 131.264 362.296C131.264 362.704 131.4 363.038 131.672 363.299C131.944 363.548 132.279 363.747 132.675 363.894C133.083 364.03 133.633 364.177 134.324 364.336C135.22 364.551 135.939 364.767 136.483 364.982C137.027 365.197 137.492 365.526 137.877 365.968C138.274 366.41 138.472 367.005 138.472 367.753C138.472 368.376 138.302 368.949 137.962 369.47C137.622 369.98 137.107 370.388 136.415 370.694C135.724 370.989 134.874 371.136 133.865 371.136ZM144.424 371.136C143.529 371.136 142.662 371 141.823 370.728C140.996 370.445 140.344 370.082 139.868 369.64L140.497 368.314C140.95 368.722 141.528 369.056 142.231 369.317C142.945 369.566 143.676 369.691 144.424 369.691C145.41 369.691 146.147 369.527 146.634 369.198C147.121 368.858 147.365 368.41 147.365 367.855C147.365 367.447 147.229 367.118 146.957 366.869C146.696 366.608 146.368 366.41 145.971 366.274C145.586 366.138 145.036 365.985 144.322 365.815C143.427 365.6 142.701 365.384 142.146 365.169C141.602 364.954 141.132 364.625 140.735 364.183C140.35 363.73 140.157 363.123 140.157 362.364C140.157 361.729 140.321 361.157 140.65 360.647C140.99 360.137 141.5 359.729 142.18 359.423C142.86 359.117 143.704 358.964 144.713 358.964C145.416 358.964 146.107 359.055 146.787 359.236C147.467 359.417 148.051 359.678 148.538 360.018L147.977 361.378C147.478 361.061 146.946 360.823 146.379 360.664C145.812 360.494 145.257 360.409 144.713 360.409C143.75 360.409 143.024 360.585 142.537 360.936C142.061 361.287 141.823 361.741 141.823 362.296C141.823 362.704 141.959 363.038 142.231 363.299C142.503 363.548 142.837 363.747 143.234 363.894C143.642 364.03 144.192 364.177 144.883 364.336C145.778 364.551 146.498 364.767 147.042 364.982C147.586 365.197 148.051 365.526 148.436 365.968C148.833 366.41 149.031 367.005 149.031 367.753C149.031 368.376 148.861 368.949 148.521 369.47C148.181 369.98 147.665 370.388 146.974 370.694C146.283 370.989 145.433 371.136 144.424 371.136Z" fill="black"/>
<path d="M40.6615 278.1L36.6835 290H34.8985L31.6515 280.497L28.4045 290H26.5855L22.6075 278.1H24.3585L27.5715 287.773L30.9205 278.1H32.4845L35.7655 287.824L39.0465 278.1H40.6615ZM49.9412 287.025H43.6172L42.3082 290H40.5572L45.9462 278.1H47.6292L53.0352 290H51.2502L49.9412 287.025ZM49.3462 285.665L46.7792 279.834L44.2122 285.665H49.3462ZM56.5757 279.579H52.4957V278.1H62.3387V279.579H58.2587V290H56.5757V279.579ZM69.3453 290.136C68.1553 290.136 67.0786 289.875 66.1153 289.354C65.1633 288.821 64.4153 288.096 63.8713 287.178C63.3273 286.249 63.0553 285.206 63.0553 284.05C63.0553 282.894 63.3273 281.857 63.8713 280.939C64.4153 280.01 65.1689 279.284 66.1323 278.763C67.0956 278.23 68.1723 277.964 69.3623 277.964C70.2916 277.964 71.1416 278.123 71.9123 278.44C72.6829 278.746 73.3403 279.205 73.8843 279.817L72.7793 280.888C71.8839 279.947 70.7676 279.477 69.4303 279.477C68.5463 279.477 67.7473 279.675 67.0333 280.072C66.3193 280.469 65.7583 281.018 65.3503 281.721C64.9536 282.412 64.7553 283.189 64.7553 284.05C64.7553 284.911 64.9536 285.693 65.3503 286.396C65.7583 287.087 66.3193 287.631 67.0333 288.028C67.7473 288.425 68.5463 288.623 69.4303 288.623C70.7563 288.623 71.8726 288.147 72.7793 287.195L73.8843 288.266C73.3403 288.878 72.6773 289.343 71.8953 289.66C71.1246 289.977 70.2746 290.136 69.3453 290.136ZM86.5434 278.1V290H84.8434V284.696H78.0094V290H76.3094V278.1H78.0094V283.217H84.8434V278.1H86.5434ZM102.678 283.829C103.369 284.022 103.913 284.373 104.31 284.883C104.706 285.382 104.905 286.016 104.905 286.787C104.905 287.818 104.514 288.612 103.732 289.167C102.961 289.722 101.833 290 100.349 290H94.6707V278.1H100.009C101.369 278.1 102.417 278.372 103.154 278.916C103.902 279.46 104.276 280.214 104.276 281.177C104.276 281.8 104.128 282.339 103.834 282.792C103.55 283.245 103.165 283.591 102.678 283.829ZM96.3707 279.477V283.285H99.8557C100.728 283.285 101.397 283.126 101.862 282.809C102.338 282.48 102.576 282.004 102.576 281.381C102.576 280.758 102.338 280.287 101.862 279.97C101.397 279.641 100.728 279.477 99.8557 279.477H96.3707ZM100.281 288.623C101.244 288.623 101.969 288.464 102.457 288.147C102.944 287.83 103.188 287.331 103.188 286.651C103.188 285.325 102.219 284.662 100.281 284.662H96.3707V288.623H100.281ZM112.467 290.136C110.88 290.136 109.645 289.683 108.761 288.776C107.877 287.869 107.435 286.566 107.435 284.866V278.1H109.135V284.798C109.135 287.348 110.251 288.623 112.484 288.623C113.572 288.623 114.405 288.311 114.983 287.688C115.561 287.053 115.85 286.09 115.85 284.798V278.1H117.499V284.866C117.499 286.577 117.057 287.886 116.173 288.793C115.289 289.688 114.054 290.136 112.467 290.136ZM126.305 290.136C125.115 290.136 124.039 289.875 123.075 289.354C122.123 288.821 121.375 288.096 120.831 287.178C120.287 286.249 120.015 285.206 120.015 284.05C120.015 282.894 120.287 281.857 120.831 280.939C121.375 280.01 122.129 279.284 123.092 278.763C124.056 278.23 125.132 277.964 126.322 277.964C127.252 277.964 128.102 278.123 128.872 278.44C129.643 278.746 130.3 279.205 130.844 279.817L129.739 280.888C128.844 279.947 127.728 279.477 126.39 279.477C125.506 279.477 124.707 279.675 123.993 280.072C123.279 280.469 122.718 281.018 122.31 281.721C121.914 282.412 121.715 283.189 121.715 284.05C121.715 284.911 121.914 285.693 122.31 286.396C122.718 287.087 123.279 287.631 123.993 288.028C124.707 288.425 125.506 288.623 126.39 288.623C127.716 288.623 128.833 288.147 129.739 287.195L130.844 288.266C130.3 288.878 129.637 289.343 128.855 289.66C128.085 289.977 127.235 290.136 126.305 290.136ZM137.145 284.713L134.969 286.923V290H133.269V278.1H134.969V284.747L141.429 278.1H143.367L138.284 283.455L143.69 290H141.701L137.145 284.713ZM145.488 278.1H147.188V288.521H153.631V290H145.488V278.1ZM164.218 288.521V290H155.582V278.1H163.98V279.579H157.282V283.234H163.249V284.679H157.282V288.521H164.218Z" fill="black"/>
<path d="M27.3165 209.136C26.4211 209.136 25.5541 209 24.7155 208.728C23.8881 208.445 23.2365 208.082 22.7605 207.64L23.3895 206.314C23.8428 206.722 24.4208 207.056 25.1235 207.317C25.8375 207.566 26.5685 207.691 27.3165 207.691C28.3025 207.691 29.0391 207.527 29.5265 207.198C30.0138 206.858 30.2575 206.41 30.2575 205.855C30.2575 205.447 30.1215 205.118 29.8495 204.869C29.5888 204.608 29.2601 204.41 28.8635 204.274C28.4781 204.138 27.9285 203.985 27.2145 203.815C26.3191 203.6 25.5938 203.384 25.0385 203.169C24.4945 202.954 24.0241 202.625 23.6275 202.183C23.2421 201.73 23.0495 201.123 23.0495 200.364C23.0495 199.729 23.2138 199.157 23.5425 198.647C23.8825 198.137 24.3925 197.729 25.0725 197.423C25.7525 197.117 26.5968 196.964 27.6055 196.964C28.3081 196.964 28.9995 197.055 29.6795 197.236C30.3595 197.417 30.9431 197.678 31.4305 198.018L30.8695 199.378C30.3708 199.061 29.8381 198.823 29.2715 198.664C28.7048 198.494 28.1495 198.409 27.6055 198.409C26.6421 198.409 25.9168 198.585 25.4295 198.936C24.9535 199.287 24.7155 199.741 24.7155 200.296C24.7155 200.704 24.8515 201.038 25.1235 201.299C25.3955 201.548 25.7298 201.747 26.1265 201.894C26.5345 202.03 27.0841 202.177 27.7755 202.336C28.6708 202.551 29.3905 202.767 29.9345 202.982C30.4785 203.197 30.9431 203.526 31.3285 203.968C31.7251 204.41 31.9235 205.005 31.9235 205.753C31.9235 206.376 31.7535 206.949 31.4135 207.47C31.0735 207.98 30.5578 208.388 29.8665 208.694C29.1751 208.989 28.3251 209.136 27.3165 209.136ZM36.6041 198.579H32.5241V197.1H42.3671V198.579H38.2871V209H36.6041V198.579ZM52.1746 209L49.6076 205.345C49.2903 205.368 49.0409 205.379 48.8596 205.379H45.9186V209H44.2186V197.1H48.8596C50.4009 197.1 51.6136 197.468 52.4976 198.205C53.3816 198.942 53.8236 199.956 53.8236 201.248C53.8236 202.166 53.5969 202.948 53.1436 203.594C52.6903 204.24 52.0443 204.71 51.2056 205.005L54.0276 209H52.1746ZM48.8086 203.934C49.8853 203.934 50.7069 203.702 51.2736 203.237C51.8403 202.772 52.1236 202.109 52.1236 201.248C52.1236 200.387 51.8403 199.729 51.2736 199.276C50.7069 198.811 49.8853 198.579 48.8086 198.579H45.9186V203.934H48.8086ZM64.1522 206.025H57.8282L56.5192 209H54.7682L60.1572 197.1H61.8402L67.2462 209H65.4612L64.1522 206.025ZM63.5572 204.665L60.9902 198.834L58.4232 204.665H63.5572ZM73.6623 197.1C75.2037 197.1 76.4163 197.468 77.3003 198.205C78.1843 198.942 78.6263 199.956 78.6263 201.248C78.6263 202.54 78.1843 203.554 77.3003 204.291C76.4163 205.028 75.2037 205.396 73.6623 205.396H70.7213V209H69.0213V197.1H73.6623ZM73.6113 203.917C74.688 203.917 75.5097 203.69 76.0763 203.237C76.643 202.772 76.9263 202.109 76.9263 201.248C76.9263 200.387 76.643 199.729 76.0763 199.276C75.5097 198.811 74.688 198.579 73.6113 198.579H70.7213V203.917H73.6113ZM102.668 197.1L98.6903 209H96.9053L93.6583 199.497L90.4113 209H88.5923L84.6143 197.1H86.3653L89.5783 206.773L92.9273 197.1H94.4913L97.7723 206.824L101.053 197.1H102.668ZM104.748 197.1H106.448V209H104.748V197.1ZM110.011 197.1H115.026C116.284 197.1 117.4 197.349 118.375 197.848C119.349 198.347 120.103 199.049 120.636 199.956C121.18 200.851 121.452 201.883 121.452 203.05C121.452 204.217 121.18 205.254 120.636 206.161C120.103 207.056 119.349 207.753 118.375 208.252C117.4 208.751 116.284 209 115.026 209H110.011V197.1ZM114.924 207.521C115.887 207.521 116.731 207.334 117.457 206.96C118.193 206.586 118.76 206.065 119.157 205.396C119.553 204.716 119.752 203.934 119.752 203.05C119.752 202.166 119.553 201.39 119.157 200.721C118.76 200.041 118.193 199.514 117.457 199.14C116.731 198.766 115.887 198.579 114.924 198.579H111.711V207.521H114.924ZM126.252 198.579H122.172V197.1H132.015V198.579H127.935V209H126.252V198.579ZM144.101 197.1V209H142.401V203.696H135.567V209H133.867V197.1H135.567V202.217H142.401V197.1H144.101Z" fill="black"/>
</svg>
